<svg width="44" height="18" viewBox="0 0 44 18" fill="none" xmlns="http://www.w3.org/2000/svg">
<path d="M5.6368 0L0 17.84H3.9024L4.7696 15.2293H8.2384V12.1834H5.6368L7.8048 4.3512H10.84V0H5.6368ZM10.84 0V17.84H14.7424V12.1834L16.6936 10.0078L21.2464 17.84H21.68V11.7483L18.8616 7.61464L21.68 4.3512V0H20.8128L14.7424 7.61464V0H10.84ZM28.184 0H24.2816L21.68 11.7483V17.84H23.4144L26.016 6.5268L29.0512 17.84H32.52V0L30.7856 11.7483L28.184 0Z" fill="#F5F5F5"/>
<path fill-rule="evenodd" clip-rule="evenodd" d="M32.52 17.84V0L39.4576 3.72314e-05C41.6129 3.72314e-05 43.36 1.75332 43.36 3.91612V13.924C43.36 16.0868 41.6129 17.84 39.4576 17.84L32.52 17.84ZM35.5552 3.04588V14.7942H38.1568C39.3541 14.7942 40.3248 13.8201 40.3248 12.6186V5.22148C40.3248 4.01996 39.3541 3.04588 38.1568 3.04588H35.5552Z" fill="#F5F5F5"/>
</svg>
