<svg width="20" height="18" viewBox="0 0 20 18" fill="none" xmlns="http://www.w3.org/2000/svg">
<path d="M0 1.4375C0 0.642383 0.638393 0 1.42857 0H18.5714C19.3616 0 20 0.642383 20 1.4375C20 2.23262 19.3616 2.875 18.5714 2.875H1.42857C0.638393 2.875 0 2.23262 0 1.4375ZM0 8.625C0 7.82988 0.638393 7.1875 1.42857 7.1875H18.5714C19.3616 7.1875 20 7.82988 20 8.625C20 9.42012 19.3616 10.0625 18.5714 10.0625H1.42857C0.638393 10.0625 0 9.42012 0 8.625ZM20 15.8125C20 16.6076 19.3616 17.25 18.5714 17.25H1.42857C0.638393 17.25 0 16.6076 0 15.8125C0 15.0174 0.638393 14.375 1.42857 14.375H18.5714C19.3616 14.375 20 15.0174 20 15.8125Z" fill="#F5F5F5"/>
</svg>
