<svg xmlns="http://www.w3.org/2000/svg" fill="none" viewBox="0 0 33 32">
  <path fill="currentColor" d="m31.76.32-10.2.01a.9.9 0 0 0-.64.26.87.87 0 0 0-.26.62v2.04a.87.87 0 0 0 .27.63.9.9 0 0 0 .65.26l4.6-.17.13.13L8.88 21.17a.73.73 0 0 0-.22.52.72.72 0 0 0 .22.53l1.43 1.4a.75.75 0 0 0 .82.16c.1-.03.18-.09.25-.16L28.8 6.55l.12.12-.17 4.51a.87.87 0 0 0 .26.64.9.9 0 0 0 .64.26h2.09a.9.9 0 0 0 .63-.26.87.87 0 0 0 .27-.62v-10c0-.23-.09-.45-.26-.62a.9.9 0 0 0-.63-.26Zm-4.1 17.64h-1c-.27 0-.52.1-.71.29a.97.97 0 0 0-.3.69v9.43c0 .1-.03.2-.1.26a.38.38 0 0 1-.27.1H4.03c-.1 0-.2-.03-.26-.1a.36.36 0 0 1-.11-.26V7.55c0-.1.04-.2.1-.26.08-.07.17-.1.27-.1h9.63c.26 0 .52-.11.7-.3.2-.18.3-.43.3-.69v-.98a1.01 1.01 0 0 0-1-.98h-10c-.8 0-1.56.31-2.12.86-.57.55-.88 1.3-.88 2.08v21.56c0 .78.31 1.53.88 2.08.56.55 1.32.86 2.12.86h22c.8 0 1.56-.31 2.12-.86s.88-1.3.88-2.08v-9.8a1.01 1.01 0 0 0-1-.98Z"/>
</svg>
