<svg xmlns="http://www.w3.org/2000/svg" fill="none" viewBox="0 0 24 24">
  <path fill="currentColor" d="M8.03 19.32c0 .1-.11.18-.25.18-.16.02-.28-.06-.28-.18 0-.1.12-.17.26-.17.14-.02.27.06.27.17Zm-1.5-.22c-.04.1.06.21.2.24.13.05.27 0 .3-.1.03-.1-.06-.2-.2-.25-.13-.04-.27.01-.3.11Zm2.13-.08c-.14.03-.24.13-.22.24.01.1.14.16.28.13.14-.04.24-.13.23-.23-.02-.1-.15-.16-.29-.14ZM11.85 0C5.13 0 0 5.23 0 12.1c0 5.51 3.38 10.22 8.2 11.88.62.11.84-.28.84-.6l-.02-3.05s-3.38.75-4.1-1.48c0 0-.55-1.44-1.34-1.81 0 0-1.1-.78.08-.77 0 0 1.2.1 1.87 1.28 1.06 1.92 2.83 1.37 3.52 1.04.11-.8.43-1.34.78-1.67-2.7-.31-5.44-.71-5.44-5.49 0-1.36.37-2.05 1.15-2.92a4.8 4.8 0 0 1 .12-3.37C6.67 4.82 9 6.48 9 6.48a11.1 11.1 0 0 1 6.08 0s2.32-1.67 3.34-1.34a4.8 4.8 0 0 1 .12 3.37c.78.88 1.25 1.56 1.25 2.92 0 4.8-2.85 5.18-5.55 5.49.44.39.82 1.13.82 2.3l-.02 4.15c0 .32.23.71.84.6C20.72 22.32 24 17.61 24 12.11 24 5.23 18.56 0 11.85 0ZM4.7 17.12c-.06.05-.05.16.04.25.07.08.19.12.25.05.06-.05.05-.16-.04-.25-.07-.08-.18-.12-.25-.05Zm-.52-.4c-.03.06.02.14.11.19.08.05.18.03.21-.04.03-.06-.01-.14-.11-.19-.1-.03-.18-.02-.2.03Zm1.57 1.76c-.08.07-.05.21.06.3.11.12.25.14.32.06.06-.07.03-.21-.07-.3-.1-.12-.25-.14-.31-.06Zm-.55-.73c-.08.05-.08.18 0 .3.07.1.2.16.27.1.08-.06.08-.18 0-.3-.07-.11-.2-.16-.27-.1Z"/>
</svg>
