<svg xmlns="http://www.w3.org/2000/svg" fill="none" viewBox="0 0 44 18">
  <path fill="currentColor" d="M5.64 0 0 17.84h3.9l.87-2.61h3.47v-3.05h-2.6L7.8 4.35h3.04V0h-5.2Zm5.2 0v17.84h3.9v-5.66l1.95-2.17 4.56 7.83h.43v-6.1l-2.82-4.13 2.82-3.26V0h-.87l-6.07 7.61V0h-3.9Zm17.34 0h-3.9l-2.6 11.75v6.09h1.73l2.6-11.31 3.04 11.31h3.47V0l-1.73 11.75L28.19 0Z"/>
  <path fill="currentColor" fill-rule="evenodd" d="M32.52 17.84V0h6.94a3.9 3.9 0 0 1 3.9 3.92v10a3.9 3.9 0 0 1-3.9 3.92h-6.94Zm3.04-14.8V14.8h2.6c1.2 0 2.16-.97 2.16-2.17v-7.4c0-1.2-.97-2.17-2.16-2.17h-2.6Z" clip-rule="evenodd"/>
</svg>
