<svg xmlns="http://www.w3.org/2000/svg" fill="none" viewBox="0 0 800 800">
  <g clip-path="url(#a)">
    <g filter="url(#b)">
      <path fill="#F95B18" d="M0 0h800v800H0V0Z"/>
    </g>
    <g filter="url(#c)">
      <path fill="#F99418" fill-rule="evenodd" d="m312.2 1018.54 41.46-8.13-14.8-75.51 36.98-123.47 130.58 144.8 23.02-20.77-143.19-158.78 4.36-14.57L539.1 926.75l14.11-12.72L397 740.81l53.92-180.08 151.29-35.84 171.55 190.24 14.11-12.73L623.3 519.9l14.42-3.42L797.53 693.7l34.16-30.8-142.94-158.51 279.2-66.15-9.74-41.12-301.73 71.48-133.6-148.15 11.97-39.95L874.6 200l-8.06-34.04-320.1 75.84 4.32-14.46 287.15-68.03-3.48-14.67-278.67 66.03L637.02-60.7 596.54-72.8l-88.26 294.72-61.2 14.5L196.82-41.12l-34.16 30.8 233.4 258.82-14.42 3.42L156.08 1.82 139.8-81.34 98.33-73.2l73.43 374.84-140.74 33.34-112.7-124.96-14.1 12.72L9.94 339.98l-14.43 3.41-100.95-111.94-23.02 20.76 89.58 99.33-209.21 49.57 3.47 14.66 217.25-51.46 9.98 11.07-198.6 47.05 8.07 34.04L9.32 405l161.19 178.74-294.83 69.85 9.74 41.12 317.36-75.2 39.92 44.28 52.7 268.98-18.02 60.15 31.65 9.47 3.16 16.15Zm95.36-757.28-14.43 3.42 10 11.07 14.42-3.41-10-11.08Zm61.02-1.01 30.37-7.2 4.33-14.47-44.68 10.6 9.98 11.06Zm-24.32 41.7-14.43 3.42 40.13 44.5 4.36-14.57-30.06-33.34Zm63.18 70.07-4.37 14.57 87.95 97.52 14.42-3.42-98-108.67Zm-10.75 35.87 73.25 81.22-105.02 24.88 31.77-106.1Zm-33.11-36.72-54.83-60.8-183.7 43.52 40.61 207.3 151.78-35.95 46.14-154.07Zm-81.54-90.42-9.99-11.07-156.24 37.01 2.51 12.85 163.72-38.8ZM163.18 38.05l197.37 218.86L212.9 291.9 163.18 38.06ZM21.45 352.75l-14.43 3.42 9.99 11.07 14.42-3.42-9.98-11.07Zm36.7 40.7-14.43 3.41 161.19 178.74 14.42-3.42L58.14 393.43Zm161 150.17L79.23 388.44l104.68-24.8 35.26 179.97Zm62.12 97.25 4.86 24.8 67 74.3 4.37-14.57-76.23-84.53Zm82.6 63.23-89.7-99.48-.38-1.91 129.65-30.72-39.56 132.1ZM52.52 358.82l-9.98-11.07 132.13-31.3 2.51 12.84-124.66 29.53ZM342.73 774.7l-45.02-49.92 23.72 121.06 21.3-71.14Z" clip-rule="evenodd"/>
    </g>
    <g filter="url(#d)">
      <path fill="#F97A18" fill-rule="evenodd" d="m-37.97 806.2 36.24 21.74 39.59-65.98L148 695.03V890h31V676.2l13-7.9V890h19V656.75l160.65-97.62L508 633.83V890h19V644.24l13 7.12V890h46V676.56l251.64 137.86 20.3-37.06L586 628.38v-199.5l35.65-21.66 306.22 167.76 16.8-30.67-288.5-158.06 12.9-7.84 258.8 141.78 7.24-13.22-251.17-137.6 242.07-147.1-21.94-36.1-262.92 159.76L586 315.7v-373.7h-46v348.5l-13-7.12V-53.39l43.58-72.65-36.23-21.74-196.5 327.55L211 110.27V-58h-19V99.87l-13-7.13V-58h-31V75.76L-40.56-27.54l-7.24 13.22L148 92.95v14.9L-31 9.8l-16.8 30.67L148 147.74v240.69l-265.73-145.58-20.3 37.06L148 436.61v59.6L6.99 731.27l-53.65 32.6 17.15 28.24-8.46 14.1ZM540 307.7l-13-7.12v14.9l13 7.13V307.7Zm46 40.11 27.37 15 12.9-7.85L586 332.9v14.91Zm-46 14.68-13-7.12v59.92l13-7.9v-44.9Zm0 94.34-13 7.9v131.33l13 7.12V456.84Zm-32 19.45v109.37l-94.65-51.86L508 476.28Zm0-49.45v-81.87l-165.57-90.7-108.67 181.15 136.8 74.94L508 426.83Zm0-121.75v-14.91l-140.82-77.15-6.74 11.22L508 305.08Zm0-326.8v294.7l-133.06-72.9L508-21.72ZM192 117.05l-13-7.12v14.91l13 7.12v-14.9Zm0 54.8-13-7.13v240.69l13 7.12V171.85Zm19 219.35V182.26l94.35 51.68L211 391.2Zm-19 113.82-13 21.67v100.05l13-7.9V505.03Zm19 102.28V473.35l1-1.68 116.85 64.02L211 607.3Zm0-464.93v-14.91l119.09 65.24-6.74 11.22L211 142.37Zm-63 503.21v-67.22L84.54 684.14 148 645.58Z" clip-rule="evenodd"/>
    </g>
    <g filter="url(#e)">
      <path fill="#071321" d="m40.06 759.94 115.85 223.4 37.23-37.23-16.55-33.1 33.1-33.1-28.96-28.96-24.82 24.83-53.79-95.16 28.96-28.96-41.37-41.37-49.65 49.65Z"/>
      <path fill="#071321" d="m89.71 710.29 169.63 169.63 37.23-37.24-53.78-53.78-2.07-39.3 117.9 31.02 4.14-4.13-57.91-57.93-66.2-12.4-4.14-57.93-41.37-41.37-8.27 8.27 14.48 130.33-72.4-72.4-37.24 37.23Zm128.25 211-37.23 37.23 86.88 136.53 57.92 57.92 16.55-16.55-82.75-132.39 136.53 78.61 33.1-33.1-169.63-169.63 95.16 128.26-136.53-86.88Z"/>
      <path fill="#071321" fill-rule="evenodd" d="M428.96 1049.54 259.33 879.91l75.99-75.98a38.81 38.81 0 0 1 54.9 0l114.72 114.73a38.82 38.82 0 0 1 0 54.9l-75.98 75.98Zm-111.7-169.63 111.7 111.7 30.26-30.25a21.56 21.56 0 0 0 0-30.5l-81.2-81.2a21.56 21.56 0 0 0-30.5 0l-30.26 30.25Z" clip-rule="evenodd"/>
      <path fill="#071321" d="m40.06 759.94-223.4-115.85 37.23-37.23 33.1 16.55 33.1-33.1 28.95 28.96-24.82 24.83 95.16 53.78 28.96-28.96 41.37 41.37-49.65 49.65Zm49.65-49.65L-79.92 540.66l37.24-37.23 53.78 53.78 39.3 2.07-31.02-117.9 4.14-4.14 57.92 57.92 12.4 66.2 57.93 4.13 41.37 41.37-8.27 8.27-130.33-14.48 72.4 72.4-37.23 37.24Z"/>
      <path fill="#071321" fill-rule="evenodd" d="m-249.54 371.04 169.63 169.62 75.98-75.98a38.82 38.82 0 0 0 0-54.9l-114.73-114.72a38.81 38.81 0 0 0-54.9 0l-75.98 75.98Zm169.63 111.7-111.7-111.7 30.25-30.26a21.56 21.56 0 0 1 30.5 0l81.2 81.2a21.57 21.57 0 0 1 0 30.5l-30.26 30.26Z" clip-rule="evenodd"/>
      <path fill="#071321" d="M-175.07-381.93-5.45-212.3l37.24-37.24-53.78-53.78-2.07-39.3 117.9 31.02 4.14-4.13-57.92-57.92-66.2-12.42-4.13-57.92-41.37-41.37-8.28 8.28 14.48 130.32-72.4-72.4-37.23 37.23Zm128.25 211-37.23 37.23L2.83 2.83l57.92 57.92L77.3 44.2-5.45-88.19l136.53 78.6 33.1-33.09L-5.45-212.31 89.71-84.05l-136.53-86.88ZM453.78 346.22l115.85 223.4 37.23-37.23-16.55-33.1 33.1-33.1-28.96-28.95-24.83 24.82-53.78-95.16 28.96-28.96-41.37-41.37-49.65 49.65Z"/>
      <path fill="#071321" d="M503.43 296.57 673.05 466.2l37.24-37.24-53.78-53.78-2.07-39.3 117.9 31.02 4.14-4.13-57.92-57.92-66.2-12.42-4.13-57.92-41.37-41.37-8.27 8.28 14.48 130.32-72.4-72.4-37.24 37.23Zm128.25 211-37.23 37.23 86.88 136.53 57.92 57.92 16.55-16.55-82.75-132.39 136.53 78.6 33.1-33.09-169.63-169.63 95.16 128.26-136.53-86.88Z"/>
      <path fill="#071321" fill-rule="evenodd" d="M842.68 635.82 673.05 466.19l75.99-75.98a38.81 38.81 0 0 1 54.9 0l114.72 114.74a38.81 38.81 0 0 1 0 54.89l-75.98 75.98ZM730.98 466.2l111.7 111.7 30.26-30.26a21.56 21.56 0 0 0 0-30.5l-81.2-81.2a21.56 21.56 0 0 0-30.5 0l-30.26 30.26Z" clip-rule="evenodd"/>
      <path fill="#071321" d="m453.78 346.22-223.4-115.85 37.23-37.23 33.1 16.55 33.1-33.1 28.95 28.96-24.82 24.82 95.16 53.79 28.96-28.96 41.37 41.37-49.65 49.65Z"/>
      <path fill="#071321" d="M503.43 296.57 333.8 126.94l37.24-37.23 53.78 53.78 39.3 2.07-31.02-117.9 4.13-4.14 57.93 57.92 12.4 66.2 57.93 4.13 41.37 41.37-8.27 8.28-130.33-14.48 72.4 72.4-37.23 37.23Zm-211-128.25-37.23 37.23-136.53-86.88-57.92-57.92L77.3 44.2l132.39 82.74-78.6-136.52 33.09-33.1 169.63 169.63-128.26-95.16 86.88 136.53Z"/>
      <path fill="#071321" fill-rule="evenodd" d="m164.18-42.68 169.63 169.63 75.98-75.99a38.81 38.81 0 0 0 0-54.89L295.06-118.66a38.81 38.81 0 0 0-54.9 0l-75.98 75.98Zm169.63 111.7L222.1-42.68l30.25-30.26a21.56 21.56 0 0 1 30.5 0l81.2 81.2a21.56 21.56 0 0 1 0 30.5l-30.25 30.26Z" clip-rule="evenodd"/>
      <path fill="#071321" d="M1181.93 975.07 1012.3 805.44l37.24-37.23 53.78 53.78 39.31 2.07-31.03-117.9 4.13-4.14 57.93 57.92 12.41 66.2 57.92 4.13 41.37 41.37-8.27 8.27-130.33-14.48 72.4 72.4-37.23 37.24Zm-211-128.25-37.23 37.23-136.53-86.88-57.92-57.92 16.55-16.55 132.39 82.75-78.6-136.53 33.09-33.1 169.62 169.63-128.25-95.16 86.88 136.53ZM-170.93-46.82l37.23-37.23L2.83 2.83l57.92 57.92L44.2 77.3-88.19-5.44l78.6 136.52-33.1 33.1L-212.3-5.45l128.26 95.16-86.88-136.53ZM346.22 453.78l223.4 115.85-37.23 37.23-33.1-16.55-33.1 33.1-28.95-28.96 24.82-24.83-95.16-53.78-28.96 28.96-41.37-41.37 49.65-49.65Zm-49.65 49.65L466.2 673.05l-37.24 37.24-53.78-53.78-39.3-2.07 31.02 117.9-4.13 4.14-57.92-57.92-12.42-66.2-57.92-4.13-41.37-41.37 8.28-8.27 130.32 14.48-72.4-72.4 37.23-37.24Z"/>
      <path fill="#071321" d="m507.57 631.68 37.23-37.23 136.53 86.88 57.92 57.92-16.55 16.55-132.39-82.75 78.6 136.53-33.09 33.1-169.63-169.63 128.26 95.16-86.88-136.53Z"/>
      <path fill="#071321" fill-rule="evenodd" d="M635.82 842.68 466.19 673.05l-75.98 75.99a38.81 38.81 0 0 0 0 54.9l114.74 114.72a38.81 38.81 0 0 0 54.89 0l75.98-75.98Zm-169.63-111.7 111.71 111.7-30.26 30.26a21.56 21.56 0 0 1-30.5 0l-81.2-81.2a21.56 21.56 0 0 1 0-30.5l30.25-30.26Z" clip-rule="evenodd"/>
      <path fill="#071321" d="m346.22 453.78-115.85-223.4-37.23 37.23 16.55 33.1-33.1 33.1 28.96 28.96 24.82-24.83 53.79 95.16-28.96 28.96 41.37 41.37 49.65-49.65Z"/>
      <path fill="#071321" d="M296.57 503.43 126.94 333.8l-37.23 37.24 53.78 53.78 2.07 39.3-117.9-31.02-4.14 4.13 57.92 57.93 66.2 12.4 4.13 57.93 41.37 41.37 8.28-8.27-14.48-130.33 72.4 72.4 37.23-37.23Zm-128.25-211 37.23-37.23-86.88-136.53-57.92-57.92L44.2 77.3l82.75 132.39-136.53-78.6-33.1 33.09 169.63 169.63-95.16-128.26 136.53 86.88Z"/>
      <path fill="#071321" fill-rule="evenodd" d="m-42.68 164.18 169.63 169.63-75.99 75.98a38.81 38.81 0 0 1-54.9 0l-114.72-114.73a38.81 38.81 0 0 1 0-54.9l75.98-75.98Zm111.7 169.63-111.7-111.7-30.26 30.25a21.57 21.57 0 0 0 0 30.5l81.2 81.2a21.56 21.56 0 0 0 30.5 0l30.26-30.25Z" clip-rule="evenodd"/>
      <path fill="#071321" d="m1024.72 1132.28-115.85-223.4-37.23 37.23 16.55 33.1-33.1 33.1 28.96 28.96 24.83-24.83 53.78 95.16-28.96 28.96 41.37 41.37 49.65-49.65Zm-49.65 49.65-169.63-169.62-37.23 37.23 53.78 53.78 2.07 39.31-117.9-31.03-4.14 4.14 57.92 57.92 66.2 12.41 4.13 57.92 41.37 41.37 8.27-8.27-14.48-130.33 72.4 72.4 37.24-37.23Zm-128.25-211 37.23-37.23-86.88-136.53-57.92-57.92-16.55 16.55 82.75 132.39-136.53-78.6-33.1 33.09 169.63 169.63-95.16-128.26 136.53 86.88ZM759.94 40.06l223.4 115.85-37.23 37.23-33.1-16.55-33.1 33.1-28.96-28.96 24.83-24.82-95.16-53.79-28.96 28.96-41.37-41.37 49.65-49.65Z"/>
      <path fill="#071321" d="m710.29 89.71 169.63 169.63-37.24 37.23-53.78-53.78-39.3-2.07 31.02 117.9-4.13 4.14-57.93-57.91-12.4-66.2-57.93-4.14-41.37-41.37 8.27-8.27 130.33 14.48-72.4-72.4 37.23-37.24Zm211 128.25 37.23-37.23 136.53 86.88 57.92 57.92-16.55 16.55-132.39-82.74 78.61 136.52-33.1 33.1-169.63-169.62 128.26 95.15-86.88-136.53Z"/>
      <path fill="#071321" fill-rule="evenodd" d="M1049.54 428.96 879.91 259.34l-75.98 75.98a38.81 38.81 0 0 0 0 54.9l114.73 114.72a38.81 38.81 0 0 0 54.9 0l75.98-75.98Zm-169.63-111.7 111.7 111.7-30.25 30.26a21.56 21.56 0 0 1-30.5 0l-81.2-81.2a21.56 21.56 0 0 1 0-30.5l30.25-30.26Z" clip-rule="evenodd"/>
      <path fill="#071321" d="m759.94 40.06-115.85-223.4-37.23 37.23 16.55 33.1-33.1 33.1 28.96 28.96 24.83-24.83 53.78 95.16-28.96 28.96 41.37 41.37 49.65-49.65ZM710.29 89.71 540.66-79.91l-37.23 37.23 53.78 53.78 2.07 39.3-117.9-31.02-4.14 4.13 57.92 57.93 66.2 12.4 4.13 57.93 41.37 41.37 8.27-8.27-14.48-130.33 72.4 72.4 37.24-37.23Zm-128.25-211 37.23-37.23-86.88-136.53-57.92-57.92-16.55 16.55 82.74 132.39-136.52-78.6-33.1 33.09L540.66-79.91l-95.15-128.26 136.53 86.88Z"/>
      <path fill="#071321" fill-rule="evenodd" d="M371.04-249.54 540.66-79.91 464.68-3.93a38.81 38.81 0 0 1-54.9 0L295.07-118.66a38.81 38.81 0 0 1 0-54.9l75.98-75.98Zm111.7 169.63-111.7-111.71-30.26 30.26a21.56 21.56 0 0 0 0 30.5l81.2 81.2a21.56 21.56 0 0 0 30.5 0l30.26-30.26Z" clip-rule="evenodd"/>
      <path stroke="#fff" stroke-opacity=".5" d="m-2094.73 180.73 169.63 169.62m-169.63-169.62 37.24-37.24 72.4 72.4-14.48-130.32 8.27-8.27m66.2 273.05 37.23-37.23-53.78-53.78-2.07-39.3 117.91 31.02 4.14-4.14m-103.43 103.43 95.15 128.26-136.53-86.88-37.23 37.23 86.88 136.53 57.92 57.92m-66.19-273.06 169.62 169.63m-169.62-169.63 75.98-75.98a38.81 38.81 0 0 1 54.89 0m-85.36-85.37-66.2-12.4-4.14-57.93m70.34 70.33 57.92 57.92m-57.92-57.92-12.42-66.2-57.92-4.13m0 0-41.37-41.37m169.63 169.62 4.13-4.13-31.03-117.91 39.31 2.06 53.78 53.79 37.24-37.24m-273.06-66.2 8.28-8.27 130.32 14.48-72.4-72.4 37.23-37.23m132.39 546.1-33.1 33.1m33.1-33.1 169.63 169.63m-169.63-169.62 75.99-75.99m-109.09 109.09-136.52-78.61 82.74 132.39m53.78-53.78 78.61 136.52-132.39-82.74m0 0-16.55 16.55m0 0 57.92 57.92 136.53 86.88 37.23-37.23-86.88-136.53 128.26 95.15m-208.38-415.23 114.74 114.73m-114.74-114.73a38.81 38.81 0 0 1 0-54.9l75.99-75.98m38.75 245.61a38.83 38.83 0 0 1 0 54.9m0-54.9a38.81 38.81 0 0 0 54.89 0m-54.89 54.9a38.81 38.81 0 0 1 54.89 0m158.73 464.88 115.84 223.4 37.23-37.23-16.55-33.1 33.1-33.1-28.96-28.96-24.82 24.83-53.79-95.16 28.96-28.96-41.37-41.37m-49.64 49.64 49.64-49.64m-49.64 49.64-223.41-115.84 37.23-37.23 33.1 16.55 33.1-33.1 28.96 28.96-24.83 24.82 95.16 53.79 28.96-28.96 41.37 41.37m0 0 169.63 169.62m-169.63-169.62 37.24-37.24m-37.24 37.24-169.62-169.63m339.25 339.25 37.23-37.23-53.78-53.78-2.07-39.3 117.91 31.02 4.14-4.14m-103.43 103.43 95.15 128.26-136.53-86.88-37.23 37.23 86.88 136.53 57.92 57.92m-66.19-273.06 169.62 169.63m-169.62-169.63 75.98-75.98a38.81 38.81 0 0 1 54.89 0m-263.26-130.88 72.4 72.4-14.48-130.32m-57.92 57.92-72.4-72.4 130.32 14.48m0 0 8.27-8.27m111.71 111.7-66.2-12.4-4.14-57.93m70.34 70.33 57.92 57.92m-57.92-57.92-12.42-66.2-57.92-4.13m0 0-41.37-41.37m169.63 169.62 4.13-4.13-31.03-117.91 39.31 2.07 53.78 53.78 37.24-37.24m-273.06-66.2-41.37-41.36m41.37 41.37 8.28-8.28m227.54 450.96-33.1 33.1m33.1-33.1 169.63 169.62m-169.63-169.62 75.99-75.99m-109.09 109.09-136.52-78.61 82.74 132.39m53.78-53.78 78.61 136.52-132.39-82.74m0 0-16.55 16.55m0 0 57.92 57.92 136.53 86.88 37.24-37.23-86.89-136.53 128.26 95.15m-208.38-415.23 114.74 114.73m-114.74-114.73a38.81 38.81 0 0 1 0-54.9l75.99-75.98m38.75 245.61a38.82 38.82 0 0 1 0 54.89m0-54.89a38.8 38.8 0 0 0 54.89 0m-54.89 54.89a38.82 38.82 0 0 1 54.89 0m158.73 464.89 115.84 223.4 37.23-37.23-16.55-33.1 33.1-33.1-28.96-28.96-24.82 24.83-53.79-95.16 28.96-28.96-41.37-41.37m-49.64 49.65 49.64-49.65m-49.64 49.65-223.41-115.85 37.23-37.23 33.1 16.55 33.1-33.1 28.96 28.96-24.83 24.82 95.16 53.79 28.96-28.96 41.37 41.37m0 0 169.63 169.62m-169.63-169.62 37.24-37.24m-37.24 37.24-169.62-169.63m339.25 339.25 37.23-37.23-53.78-53.78-2.07-39.31 117.9 31.03 4.15-4.14m-103.43 103.43 95.15 128.26-136.53-86.88-37.23 37.23 86.88 136.53 57.92 57.92m-66.2-273.06 169.63 169.63m-169.62-169.63 75.98-75.98a38.81 38.81 0 0 1 54.9 0m-263.27-130.88 72.4 72.41-14.48-130.33m-57.92 57.92-72.4-72.4 130.32 14.48m0 0 8.27-8.27m111.7 111.7-66.19-12.41-4.14-57.92m70.34 70.33 57.92 57.92M-522.6 1546l-12.42-66.19-57.92-4.14m0 0-41.37-41.37m169.63 169.62 4.13-4.13-31.02-117.91 39.3 2.07 53.78 53.78 37.24-37.24m-273.06-66.19-41.37-41.37m41.37 41.37 8.28-8.28m227.54 450.96-33.1 33.1m33.1-33.1 169.63 169.62m-169.63-169.62 75.99-75.99m-109.09 109.09-136.52-78.61 82.74 132.39m53.78-53.78 78.61 136.52-132.39-82.74m0 0-16.55 16.55m0 0 57.92 57.92 136.53 86.88 37.23-37.23-86.88-136.53 128.26 95.15m-208.38-415.23 114.74 114.73m-114.74-114.73a38.81 38.81 0 0 1 0-54.89l75.99-75.99m38.75 245.61a38.81 38.81 0 0 1 0 54.89m0-54.89a38.81 38.81 0 0 0 54.89 0m-54.9 54.89a38.83 38.83 0 0 1 54.9 0m158.73 464.89 115.84 223.4 37.23-37.23-16.55-33.1 33.1-33.1-28.96-28.96-24.82 24.83-53.79-95.16 28.96-28.96-41.37-41.37m-49.65 49.65 49.65-49.65m-49.65 49.65-223.4-115.85 37.23-37.23 33.1 16.55 33.1-33.1 28.96 28.96-24.83 24.82 95.16 53.79 28.96-28.96 41.37 41.37m0 0 169.63 169.62m-169.63-169.62 37.24-37.24m-37.24 37.24-169.62-169.63m339.25 339.25 37.23-37.23-53.78-53.78-2.07-39.31 117.9 31.03 4.15-4.14M110.4 2385.85l95.15 128.26-136.53-86.88-37.23 37.23 86.88 136.53 57.92 57.92m-66.2-273.06 169.63 169.63M110.4 2385.85l75.98-75.98a38.81 38.81 0 0 1 54.9 0M-22 2178.99l72.4 72.4-14.48-130.32M-22 2178.99l-72.4-72.4 130.32 14.48m0 0 8.27-8.27m111.7 111.7-66.19-12.41-4.14-57.92m70.34 70.33 57.92 57.92m-57.92-57.92-12.42-66.19-57.92-4.14m0 0L44.2 2112.8m169.63 169.62 4.13-4.13-31.03-117.91 39.3 2.07 53.8 53.78 37.23-37.24M44.2 2112.8l-41.37-41.37m41.37 41.37 8.28-8.28m227.54 450.96-33.1 33.1m33.1-33.1 169.63 169.62m-169.63-169.62 75.99-75.99m-109.08 109.09-136.53-78.61 82.74 132.39m53.79-53.78 78.6 136.52-132.39-82.74m0 0-16.55 16.55m0 0 57.92 57.92 136.53 86.88 37.24-37.23-86.89-136.53 128.26 95.15m-208.38-415.23 114.74 114.73m-114.74-114.73a38.81 38.81 0 0 1 0-54.89l75.99-75.99M356 2424.6a38.81 38.81 0 0 1 0 54.89m0-54.89a38.81 38.81 0 0 0 54.89 0m-54.9 54.89a38.83 38.83 0 0 1 54.9 0M-1585.85 689.6l37.23-37.23 53.78 53.78 39.31 2.07-31.03-117.9 4.14-4.15m-103.43 103.43 75.98-75.98a38.81 38.81 0 0 0 0-54.9m85.37 85.38 12.41 66.19 57.92 4.14m-70.33-70.33-57.92-57.93m57.92 57.93 66.19 12.4 4.14 57.93m-128.25-128.26 4.13-4.13 117.91 31.03-2.07-39.3-53.78-53.8 37.24-37.23m-130.88 75.99-114.73-114.74m114.73 114.74a38.81 38.81 0 0 0 54.89 0l75.99-75.99M-1624.6 444a38.81 38.81 0 0 1 0-54.89m717.25 979 37.23-37.23 53.78 53.78 39.3 2.07-31.02-117.91 4.14-4.14m-103.43 103.43 75.98-75.98a38.81 38.81 0 0 0 0-54.89m85.37 85.36 12.4 66.2 57.93 4.14m-70.33-70.34-57.92-57.92m57.92 57.92 66.2 12.42 4.13 57.92m-128.25-128.26 4.13-4.13 117.91 31.03-2.07-39.31-53.78-53.78 37.24-37.24m-130.88 75.99-114.73-114.74m114.73 114.74a38.81 38.81 0 0 0 54.9 0l75.98-75.99m-245.61-38.75a38.81 38.81 0 0 1 0-54.89m717.25 979 37.23-37.23 53.78 53.78 39.3 2.07-31.02-117.91 4.14-4.14m-103.43 103.43 75.98-75.98a38.81 38.81 0 0 0 0-54.89m85.37 85.36 12.4 66.2 57.93 4.14m-70.33-70.34-57.92-57.92m57.92 57.92 66.2 12.42 4.13 57.92m-128.25-128.26 4.13-4.13 117.91 31.03-2.07-39.31-53.78-53.78 37.24-37.24m-130.88 75.99-114.73-114.74m114.73 114.74a38.81 38.81 0 0 0 54.9 0l75.98-75.99m-245.61-38.75a38.81 38.81 0 0 1 0-54.89m886.87 1148.63L449.65 2725.1m169.62 169.63 37.24-37.24-72.4-72.4 130.32 14.48 8.27-8.27m-273.05-66.2 37.23-37.23 53.78 53.78 39.3 2.07-31.02-117.91 4.14-4.14M449.65 2725.1l75.98-75.98a38.81 38.81 0 0 0 0-54.89m85.37 85.36 12.4 66.2 57.93 4.14M611 2679.59l-57.92-57.92m57.92 57.92 66.2 12.42 4.13 57.92m0 0 41.37 41.37m-169.62-169.63 4.13-4.13 117.91 31.03-2.07-39.31-53.78-53.78 37.24-37.24m66.2 273.06 8.27-8.28-14.48-130.32 72.4 72.4 37.23-37.23m-300.5-93.64L410.9 2479.49m114.73 114.74a38.81 38.81 0 0 0 54.9 0l75.98-75.99m-245.61-38.75a38.81 38.81 0 0 1 0-54.89M-1614.81 40.06l-115.85-223.4 49.65-49.65m66.2 273.05 37.23-37.23-16.55-33.1 33.1-33.1-28.96-28.96-24.82 24.83-53.79-95.16 28.96-28.96-41.37-41.37m66.2 273.05-223.41-115.84-49.65 49.65m273.06 66.2-37.24 37.23-33.1-16.55-33.09 33.1-28.96-28.96 24.82-24.83-95.16-53.78-28.96 28.96-41.37-41.37M-1681.01-233l169.63 169.62m-169.63-169.62 37.24-37.24 72.4 72.4-14.48-130.32 8.27-8.27m66.2 273.05 37.23-37.23-53.78-53.78-2.07-39.3 117.91 31.02 4.14-4.14m-103.43 103.43 95.15 128.26L-1552.76-22l-37.23 37.23 86.88 136.53m-8.27-215.14 169.62 169.63m-169.62-169.63 75.98-75.98a38.81 38.81 0 0 1 54.89 0m-85.36-85.37-66.2-12.4-4.14-57.93m70.34 70.33 57.92 57.92m-57.92-57.92-12.42-66.2-57.92-4.13m0 0-41.37-41.37m169.63 169.62 4.13-4.13-31.03-117.91 39.31 2.07 53.78 53.78 37.24-37.24m-273.06-66.2 8.28-8.26 130.32 14.48-72.4-72.4 37.23-37.24m132.39 546.1-33.1 33.1m33.1-33.1 169.63 169.63m-169.63-169.62 75.99-75.99m-109.09 109.09-136.52-78.61 82.74 132.39m53.78-53.78 78.61 136.52-132.39-82.74m0 0-16.55 16.55m0 0-57.92-57.92m57.92 57.92 57.92 57.92m-57.92-57.92-16.55 16.55m-41.37-74.47-136.53-86.88-37.23 37.23 86.88 136.53-128.25-95.16m337.73-282.84 114.74 114.73m-114.74-114.73a38.81 38.81 0 0 1 0-54.9l75.99-75.98m38.75 245.61a38.83 38.83 0 0 1 0 54.9m0-54.9a38.81 38.81 0 0 0 54.89 0m-54.89 54.9a38.81 38.81 0 0 1 54.89 0m274.57 688.28-115.85-223.4m115.85 223.4 37.23-37.23-16.55-33.1 33.1-33.1-28.96-28.96-24.82 24.83-53.79-95.16 28.96-28.96-41.37-41.37m66.2 273.05-223.41-115.84m223.4 115.84-37.23 37.24-33.1-16.55-33.09 33.1-28.96-28.96 24.82-24.83-95.16-53.78-28.96 28.96-41.37-41.37m157.21-157.21 49.65-49.65m-49.65 49.65-223.4-115.85m273.05 66.2 169.63 169.62m-169.63-169.62 37.24-37.24m-37.24 37.24-41.37-41.37-28.96 28.96-95.16-53.79 24.83-24.82-28.96-28.96-33.1 33.1-33.1-16.55-37.23 37.23m273.05 66.2-169.62-169.63m339.25 339.25 37.23-37.23-53.78-53.78-2.07-39.3 117.9 31.02 4.15-4.14m-103.43 103.43 95.15 128.26-136.53-86.88-37.23 37.23 86.88 136.53m-8.27-215.14 169.62 169.63m-169.62-169.63 75.98-75.98a38.81 38.81 0 0 1 54.9 0m-263.27-130.88 72.4 72.4-14.48-130.32m-57.92 57.92-72.41-72.4 130.33 14.48m0 0 8.27-8.27m111.7 111.7-66.19-12.4-4.14-57.93m70.34 70.33 57.92 57.92m-57.92-57.92-12.42-66.2-57.92-4.13m0 0-41.37-41.37m169.63 169.62 4.13-4.13-31.03-117.91 39.3 2.07 53.8 53.78 37.23-37.24m-273.06-66.2-41.37-41.36m41.37 41.37 8.28-8.27m227.54 450.95-33.1 33.1m33.1-33.1 169.63 169.62m-169.63-169.62 75.99-75.99m-109.09 109.09-136.52-78.61 82.74 132.39m53.78-53.78 78.61 136.52-132.39-82.74m0 0-16.55 16.55m0 0-57.92-57.92m57.92 57.92 57.92 57.92m-57.92-57.92-16.55 16.55m-41.37-74.47-136.53-86.88-37.23 37.23 86.88 136.53-128.25-95.16m337.73-282.84 114.74 114.73m-114.74-114.73a38.81 38.81 0 0 1 0-54.9l75.99-75.98m38.75 245.61a38.81 38.81 0 0 1 0 54.9m0-54.9a38.81 38.81 0 0 0 54.89 0m-54.9 54.9a38.81 38.81 0 0 1 54.9 0m274.57 688.28-115.84-223.4m115.84 223.4 37.23-37.23-16.55-33.1 33.1-33.1-28.96-28.96-24.82 24.83-53.79-95.16 28.96-28.96-41.37-41.37m66.2 273.05-223.41-115.84m223.4 115.84-37.23 37.24-33.1-16.55-33.1 33.1-28.95-28.96 24.82-24.83-95.16-53.78-28.96 28.96-41.37-41.37m157.22-157.21 49.64-49.65m-49.64 49.65-223.41-115.85m273.05 66.2 169.63 169.62m-169.63-169.62 37.24-37.24m-37.24 37.24-41.37-41.37-28.96 28.96-95.16-53.79 24.83-24.82-28.96-28.96-33.1 33.1-33.1-16.55-37.23 37.23m273.05 66.2-169.62-169.63m339.25 339.25 37.23-37.23-53.78-53.78-2.07-39.31 117.9 31.03 4.15-4.14m-103.43 103.43 95.15 128.26-136.53-86.88-37.23 37.23 86.88 136.53m-8.27-215.14 169.62 169.63m-169.62-169.63 75.98-75.98a38.81 38.81 0 0 1 54.9 0m-263.27-130.88 72.4 72.41-14.48-130.33m-57.92 57.92-72.4-72.4 130.32 14.48m0 0 8.27-8.27m111.7 111.7-66.19-12.41-4.14-57.92m70.34 70.33 57.92 57.92m-57.92-57.92-12.42-66.19-57.92-4.14m0 0-41.37-41.37m169.63 169.62 4.13-4.13-31.03-117.91 39.3 2.07 53.8 53.78 37.23-37.24m-273.06-66.19-41.37-41.37m41.37 41.37 8.28-8.27m227.54 450.95-33.1 33.1m33.1-33.1 169.63 169.62M15.24 1463.26l75.99-75.98m-109.09 109.08-136.52-78.61 82.74 132.39m53.78-53.78 78.61 136.52-132.39-82.74m0 0-16.55 16.55m0 0-57.92-57.92m57.92 57.92 57.92 57.92m-57.92-57.92-16.55 16.55m-41.37-74.47-136.53-86.88-37.23 37.23 86.88 136.53-128.25-95.16m337.73-282.84 114.74 114.73m-114.74-114.73a38.81 38.81 0 0 1 0-54.89l75.99-75.99m38.75 245.61a38.83 38.83 0 0 1 0 54.9m0-54.9a38.81 38.81 0 0 0 54.89 0m-54.9 54.9a38.81 38.81 0 0 1 54.9 0m274.57 688.28-115.84-223.4m115.84 223.4 37.23-37.23-16.55-33.1 33.1-33.1-28.96-28.96-24.82 24.83-53.79-95.16 28.96-28.96-41.37-41.37m66.2 273.05-223.41-115.84m223.4 115.84-37.23 37.24-33.1-16.55-33.1 33.1-28.95-28.96 24.82-24.83-95.16-53.78-28.96 28.96-41.37-41.37m157.22-157.21 49.64-49.65m-49.64 49.65L81.44 1736.31m273.05 66.2 169.63 169.62m-169.63-169.62 37.24-37.24m-37.24 37.24-41.37-41.37-28.96 28.96-95.16-53.79 24.83-24.82-28.96-28.96-33.1 33.1-33.1-16.55-37.23 37.23m273.05 66.2-169.62-169.63m339.25 339.25 37.23-37.23-53.78-53.78-2.07-39.31 117.9 31.03 4.15-4.14m-103.43 103.43 95.15 128.26-136.53-86.88-37.23 37.23 86.88 136.53m-8.27-215.14 169.62 169.63m-169.62-169.63 75.98-75.98a38.81 38.81 0 0 1 54.9 0m-263.27-130.88 72.4 72.41-14.48-130.33m-57.92 57.92-72.4-72.4 130.32 14.48m0 0 8.27-8.27m111.7 111.7-66.19-12.41-4.14-57.92m70.33 70.33 57.93 57.92m-57.92-57.92-12.42-66.19-57.92-4.14m0 0-41.37-41.37m169.63 169.62 4.13-4.13-31.03-117.91 39.3 2.07 53.8 53.78 37.23-37.24m-273.06-66.19-41.37-41.37m41.37 41.37 8.27-8.27m227.55 450.95-33.1 33.1m33.1-33.1 169.63 169.62m-169.63-169.62 75.99-75.98m-109.09 109.08-136.52-78.61 82.74 132.39m53.78-53.78 78.61 136.52-132.39-82.74m0 0-16.55 16.55m0 0-57.92-57.92m57.92 57.92 57.92 57.92m-57.92-57.92-16.55 16.55m-41.37-74.47-136.53-86.88-37.23 37.23 86.88 136.53-128.25-95.16m337.73-282.84 114.74 114.73m-114.74-114.73a38.81 38.81 0 0 1 0-54.89l75.99-75.99m38.75 245.61a38.82 38.82 0 0 1 0 54.9m0-54.9a38.81 38.81 0 0 0 54.89 0m-54.9 54.9a38.81 38.81 0 0 1 54.9 0M-1275.56 379.31l115.84 223.41m-115.84-223.4-37.24 37.23 16.55 33.1-33.1 33.1 28.96 28.95 24.83-24.82 53.78 95.16-28.96 28.96 41.37 41.37m37.24-376.49 37.23-37.23 53.78 53.78 39.31 2.07-31.03-117.9 4.14-4.15m-103.43 103.43-128.26-95.15 86.88 136.53-37.23 37.23-136.53-86.88m215.14 8.27 75.98-75.98a38.81 38.81 0 0 0 0-54.9m85.37 85.38 12.4 66.19 57.93 4.14m-70.33-70.33-57.92-57.93m57.92 57.93 66.2 12.4 4.13 57.93m-128.25-128.26 4.13-4.13 117.91 31.03-2.07-39.3-53.78-53.8 37.24-37.23m-422 198.59 86.88 136.53-37.23 37.23-136.53-86.88 95.16 128.25m282.84-337.73-114.73-114.74m114.73 114.74a38.81 38.81 0 0 0 54.89 0l75.99-75.99m-245.61-38.75a38.81 38.81 0 0 1 0-54.89m613.82 1082.43 115.84 223.41m-115.84-223.41-37.24 37.24 16.55 33.1-33.1 33.09 28.96 28.96 24.83-24.82 53.78 95.16-28.96 28.96 41.37 41.37m37.24-376.49 37.23-37.23 53.78 53.78 39.3 2.07-31.02-117.9 4.14-4.15m-103.43 103.43-128.26-95.15L-535 995.76l-37.23 37.23-136.53-86.88m215.14 8.27 75.98-75.98a38.81 38.81 0 0 0 0-54.9m85.37 85.38 12.4 66.19 57.93 4.14m-70.33-70.34-57.92-57.92m57.92 57.92 66.2 12.42 4.13 57.92M-390.2 850.95l4.13-4.13 117.91 31.03-2.07-39.3-53.78-53.79 37.24-37.24m-422 198.59 86.88 136.53-37.23 37.23-136.53-86.88 95.16 128.25m282.84-337.73-114.73-114.74m114.73 114.74a38.82 38.82 0 0 0 54.9 0l75.98-75.99m-245.61-38.75a38.81 38.81 0 0 1 0-54.89M81.44 1736.31l115.84 223.41M81.44 1736.31l-37.24 37.24 16.55 33.1-33.1 33.09 28.96 28.96 24.83-24.82 53.78 95.16-28.96 28.96 41.37 41.37m37.24-376.49 37.23-37.23 53.78 53.78 39.3 2.07-31.02-117.91 4.14-4.14m-103.43 103.43L56.6 1537.73l86.88 136.53-37.23 37.23-136.53-86.88m215.14 8.27 75.98-75.98a38.81 38.81 0 0 0 0-54.89m85.37 85.37 12.4 66.19 57.93 4.14m-70.33-70.33-57.92-57.93m57.92 57.93 66.2 12.41 4.13 57.92M288.3 1529.45l4.13-4.13 117.91 31.03-2.07-39.31-53.78-53.78 37.24-37.24m-422 198.59 86.88 136.53-37.23 37.23-136.53-86.88 95.16 128.25m282.84-337.73-114.73-114.73m114.73 114.73a38.81 38.81 0 0 0 54.9 0l75.98-75.99m-245.61-38.74a38.82 38.82 0 0 1 0-54.9m613.82 1082.43 223.4 115.85 49.65-49.65m-273.05-66.2 37.23-37.23 33.1 16.55 33.1-33.1 28.96 28.96-24.83 24.82 95.16 53.79 28.96-28.96 41.37 41.37m-273.05-66.2 115.84 223.41-49.65 49.65m-66.2-273.06-37.23 37.24 16.55 33.1-33.1 33.09 28.96 28.96 24.83-24.82 53.78 95.16-28.96 28.96 41.37 41.37M1033 2481.01l-169.62-169.63m169.62 169.63 37.24-37.24-72.4-72.4 130.32 14.48 8.27-8.27m-273.05-66.2 37.23-37.23 53.78 53.78 39.3 2.07-31.02-117.91 4.14-4.14m-103.43 103.43-128.26-95.15L822 2352.76l-37.23 37.23-136.53-86.88m215.14 8.27 75.98-75.98a38.81 38.81 0 0 0 0-54.89m85.37 85.37 12.41 66.19 57.92 4.14m-70.33-70.33-57.92-57.93m57.92 57.93 66.19 12.41 4.14 57.92m0 0 41.37 41.37M966.8 2207.95l4.13-4.13 117.91 31.03-2.07-39.31-53.78-53.78 37.24-37.24m66.19 273.06 8.28-8.27-14.48-130.33 72.4 72.4 37.23-37.23m-591.62 28.96 86.88 136.53-37.23 37.23-136.53-86.88 95.16 128.25m282.84-337.73-114.73-114.73m114.73 114.73a38.81 38.81 0 0 0 54.9 0l75.98-75.99m-245.61-38.74a38.83 38.83 0 0 1 0-54.9M-1201.1-373.65l-115.85-223.41 49.65-49.65m66.2 273.06 37.23-37.24-16.55-33.1 33.1-33.1-28.96-28.96-24.82 24.83-53.79-95.16 28.96-28.96-41.37-41.37m66.2 273.06L-1424.5-489.5l-49.65 49.65m273.06 66.2-37.24 37.23-33.1-16.55-33.09 33.1-28.96-28.96 24.82-24.82-95.16-53.79-28.96 28.96-41.37-41.37m206.86-206.86 169.63 169.63m-169.63-169.63 37.24-37.24 72.4 72.4-14.48-130.32 8.27-8.27m66.2 273.06 37.23-37.24-53.78-53.78-2.07-39.3 117.9 31.02 4.14-4.13m-103.42 103.43 95.15 128.25-136.53-86.88-37.23 37.23 86.88 136.53m-8.27-215.13 169.62 169.62m-169.62-169.63 75.98-75.98a38.81 38.81 0 0 1 54.9 0m-85.38-85.37-66.19-12.4-4.14-57.93m70.33 70.33 57.93 57.93m-57.93-57.93-12.41-66.2-57.92-4.13m0 0-41.37-41.37m169.62 169.63 4.14-4.14-31.03-117.91 39.3 2.07 53.79 53.78 37.24-37.24m-273.06-66.19 8.27-8.27 130.33 14.48-72.4-72.4 37.23-37.24m132.39 546.11-33.1 33.1m33.1-33.1 169.63 169.62m-169.63-169.62 75.98-75.98m-109.08 109.08-136.52-78.6 82.74 132.38m53.78-53.78 78.6 136.53-132.38-82.75m0 0-16.55 16.55m0 0-57.92-57.92m57.92 57.92 57.92 57.92m-57.92-57.92-16.55 16.55m-41.37-74.47-136.53-86.88-37.23 37.23 86.88 136.53-128.25-95.16m337.73-282.84 114.73 114.73m-114.73-114.73a38.81 38.81 0 0 1 0-54.9l75.99-75.98m38.74 245.61a38.81 38.81 0 0 1 0 54.9m0-54.9a38.81 38.81 0 0 0 54.9 0m-54.9 54.9a38.81 38.81 0 0 1 54.9 0m274.57 688.28-115.85-223.4m115.85 223.4 37.23-37.23-16.55-33.1 33.1-33.1-28.96-28.95-24.82 24.82-53.79-95.16 28.96-28.96-41.37-41.37m66.2 273.06L-746 189m223.4 115.85-37.23 37.23-33.1-16.55-33.1 33.1-28.96-28.96 24.83-24.82-95.16-53.79-28.96 28.96-41.37-41.37m157.21-157.21 49.65-49.65m-49.65 49.65L-861.84-34.4m273.05 66.19 169.62 169.63M-588.79 31.78l37.24-37.24M-588.8 31.8l-41.37-41.37-28.96 28.96-95.16-53.78 24.83-24.83-28.96-28.96-33.1 33.1-33.1-16.55-37.23 37.23m273.05 66.2-169.63-169.63m339.25 339.25 37.24-37.23-53.78-53.78-2.07-39.3 117.9 31.02 4.14-4.13M-419.17 201.4-324 329.67l-136.53-86.88-37.23 37.23 86.88 136.53m-8.28-215.14 169.63 169.63m-169.63-169.63 75.99-75.98a38.81 38.81 0 0 1 54.9 0M-551.56-5.45l72.4 72.4-14.48-130.32m-57.92 57.92-72.4-72.4 130.32 14.48m0 0 8.27-8.27m111.7 111.7-66.2-12.4-4.13-57.93m70.33 70.33L-315.73 98m-57.93-57.93-12.4-66.2-57.93-4.13m0 0-41.37-41.37m169.63 169.63 4.13-4.14-31.03-117.91 39.3 2.07 53.79 53.78 37.23-37.24m-273.05-66.19-41.37-41.37m41.37 41.37 8.28-8.28m227.54 450.96-33.1 33.1m33.1-33.1 169.63 169.62m-169.63-169.62 75.98-75.98m-109.08 109.08-136.53-78.6 82.75 132.38m53.78-53.78 78.61 136.52-132.4-82.74m0 0-16.54 16.55m0 0-57.92-57.92m57.92 57.92 57.92 57.92m-57.92-57.92-16.55 16.55m-41.37-74.47-136.53-86.88-37.23 37.23 86.88 136.53-128.25-95.16m337.73-282.84 114.73 114.73m-114.73-114.73a38.81 38.81 0 0 1 0-54.9l75.99-75.98m38.74 245.61a38.81 38.81 0 0 1 0 54.9m0-54.9a38.81 38.81 0 0 0 54.9 0m-54.9 54.9a38.81 38.81 0 0 1 54.9 0M155.9 983.34 40.06 759.95m115.85 223.4 37.23-37.23-16.55-33.1 33.1-33.1-28.96-28.96-24.82 24.83-53.79-95.16 28.96-28.96-41.37-41.37m66.2 273.06L-67.5 867.5m223.4 115.85-37.23 37.23-33.1-16.55-33.1 33.1-28.95-28.96 24.82-24.82-95.16-53.79-28.96 28.96-41.37-41.37M40.06 759.94l49.65-49.65m-49.65 49.65-223.4-115.85M89.7 710.3l169.63 169.63M89.7 710.28l37.23-37.24M89.72 710.3l-41.37-41.37-28.96 28.96-95.16-53.78 24.83-24.83-28.96-28.96-33.1 33.1-33.1-16.55-37.23 37.24M89.7 710.29-79.92 540.66m339.25 339.25 37.24-37.23-53.78-53.78-2.07-39.3 117.9 31.02 4.14-4.13M259.33 879.9l95.16 128.26-136.53-86.88-37.23 37.23 86.88 136.53m-8.28-215.13 169.63 169.62M259.33 879.91l75.99-75.98a38.81 38.81 0 0 1 54.9 0M126.93 673.05l72.4 72.4-14.47-130.32m-57.93 57.92-72.4-72.4 130.33 14.49m0 0 8.27-8.28m111.7 111.7-66.2-12.4-4.13-57.93m70.34 70.33 57.91 57.93m-57.91-57.93-12.42-66.2-57.92-4.13m0 0-41.37-41.37m169.63 169.63 4.13-4.14-31.03-117.91 39.3 2.07 53.79 53.78 37.24-37.24m-273.06-66.19-41.37-41.37m41.37 41.37 8.28-8.27m227.54 450.95-33.1 33.1m33.1-33.1 169.63 169.62m-169.63-169.62 75.99-75.98m-109.09 109.08-136.53-78.61 82.75 132.39m53.78-53.78 78.61 136.53-132.4-82.75m0 0-16.54 16.55m0 0-57.92-57.92m57.92 57.92 57.92 57.92m-57.92-57.92-16.55 16.55m-41.37-74.47-136.53-86.88-37.23 37.23 86.88 136.53-128.25-95.16M390.2 803.93l114.73 114.73M390.21 803.93a38.81 38.81 0 0 1 0-54.9l75.99-75.98m38.75 245.61a38.82 38.82 0 0 1 0 54.9m0-54.9a38.81 38.81 0 0 0 54.89 0m-54.9 54.9a38.81 38.81 0 0 1 54.9 0m274.57 688.29-115.85-223.41m115.85 223.41 37.23-37.24-16.55-33.1 33.1-33.09-28.96-28.97-24.82 24.83-53.79-95.16 28.96-28.96-41.37-41.37m66.2 273.06L611 1546m223.4 115.85-37.23 37.23-33.1-16.55-33.1 33.1-28.95-28.96 24.82-24.82-95.16-53.79-28.96 28.96-41.37-41.37m157.21-157.21 49.65-49.65m-49.65 49.65-223.4-115.85m273.05 66.2 169.63 169.62M768.2 1388.79l37.24-37.23m-37.24 37.23-41.37-41.37-28.96 28.96-95.16-53.79 24.83-24.82-28.96-28.96-33.1 33.1-33.1-16.55-37.23 37.23m273.05 66.2-169.63-169.63m339.25 339.25 37.24-37.23-53.78-53.78-2.07-39.31 117.91 31.03 4.14-4.13m-103.43 103.42 95.15 128.26-136.53-86.88-37.23 37.23 86.88 136.53m-8.27-215.14 169.62 169.63m-169.63-169.63 75.99-75.98a38.8 38.8 0 0 1 54.89 0m-263.26-130.87 72.4 72.4-14.48-130.33m-57.92 57.93-72.4-72.41 130.32 14.48m0 0 8.27-8.27m111.7 111.7-66.2-12.41-4.13-57.92m70.34 70.33 57.92 57.93m-57.92-57.93-12.42-66.19-57.92-4.14m0 0-41.37-41.37m169.63 169.63 4.13-4.14-31.03-117.91 39.31 2.07 53.78 53.78 37.24-37.23m-273.06-66.2-41.37-41.37m41.37 41.37 8.27-8.27m227.55 450.95-33.1 33.1m33.1-33.1 169.63 169.63m-169.63-169.63 75.98-75.98m-109.08 109.08-136.52-78.61 82.74 132.39m53.78-53.78 78.61 136.53-132.39-82.75m0 0-16.55 16.55m0 0-57.92-57.92m57.92 57.92 57.92 57.92m-57.92-57.92-16.55 16.55m-41.37-74.47-136.53-86.88-37.23 37.23 86.88 136.53-128.25-95.16m337.73-282.84 114.73 114.73m-114.73-114.73a38.8 38.8 0 0 1 0-54.89l75.99-75.98m38.74 245.6a38.82 38.82 0 0 1 0 54.9m0-54.9a38.82 38.82 0 0 0 54.9 0m-54.9 54.9a38.82 38.82 0 0 1 54.9 0M-861.84-34.4-746 189M-861.84-34.4l-37.24 37.23 16.55 33.1-33.1 33.1 28.96 28.96 24.83-24.83 53.78 95.16-28.96 28.96 41.37 41.37m37.24-376.49 37.23-37.23 53.78 53.78 39.3 2.07-31.02-117.9 4.13-4.14M-758.4-137.84l-128.26-95.15 86.88 136.53-37.23 37.23-136.53-86.88m215.13 8.28 75.99-75.99a38.81 38.81 0 0 0 0-54.9m85.37 85.38 12.4 66.2 57.93 4.13m-70.33-70.33L-655-241.26m57.93 57.92 66.2 12.4 4.13 57.93m-128.25-128.25 4.13-4.14 117.91 31.03-2.07-39.3-53.78-53.79 37.24-37.24m-422 198.59 86.88 136.53-37.23 37.23-136.53-86.88 95.16 128.25m282.84-337.73-114.73-114.73m114.73 114.73a38.81 38.81 0 0 0 54.9 0l75.98-75.99m-245.61-38.74a38.81 38.81 0 0 1 0-54.9M-183.34 644.1-67.5 867.5m-115.84-223.4-37.24 37.23 16.55 33.1-33.1 33.1 28.96 28.96 24.83-24.83 53.78 95.16-28.96 28.96 41.37 41.37m37.23-376.49 37.24-37.23 53.78 53.78 39.3 2.07-31.02-117.9 4.13-4.14M-79.92 540.65l-128.25-95.15 86.88 136.53-37.23 37.23-136.53-86.88m215.13 8.27 75.99-75.98a38.82 38.82 0 0 0 0-54.9m85.37 85.38 12.4 66.2 57.93 4.13m-70.33-70.33-57.92-57.93m57.92 57.93 66.2 12.4 4.13 57.93M23.5 437.24l4.14-4.14 117.91 31.03-2.07-39.3-53.78-53.79 37.23-37.24M-295.05 532.4l86.88 136.53-37.23 37.23-136.53-86.88 95.16 128.25M-3.93 409.8l-114.73-114.73M-3.93 409.79a38.81 38.81 0 0 0 54.9 0l75.97-75.99m-245.6-38.74a38.81 38.81 0 0 1 0-54.9M495.16 1322.6 611 1546m-115.84-223.41-37.24 37.24 16.55 33.1-33.1 33.09 28.96 28.97 24.83-24.83 53.78 95.16-28.96 28.96 41.37 41.37m37.24-376.49 37.23-37.23 53.78 53.78 39.3 2.07-31.02-117.91 4.13-4.13M598.6 1219.16l-128.26-95.15 86.88 136.53-37.23 37.23-136.53-86.88m215.14 8.27 75.98-75.98a38.81 38.81 0 0 0 0-54.89m85.37 85.37 12.4 66.19 57.93 4.14m-70.33-70.33L702 1115.74m57.93 57.92 66.2 12.41 4.13 57.92m-128.25-128.25 4.13-4.14 117.91 31.03-2.07-39.31-53.78-53.78 37.24-37.23m-422 198.58 86.88 136.53-37.23 37.23-136.53-86.88 95.16 128.25m282.84-337.73L559.84 973.56m114.73 114.73a38.81 38.81 0 0 0 54.9 0l75.98-75.98m-245.61-38.75a38.81 38.81 0 0 1 0-54.9m613.82 1082.43 223.4 115.85 49.65-49.65m-273.05-66.2 37.23-37.23 33.1 16.55 33.1-33.1 28.96 28.96-24.83 24.82 95.16 53.79 28.96-28.96 41.37 41.37m-273.05-66.2 115.84 223.41-49.65 49.65m-66.19-273.06-37.24 37.24 16.55 33.1-33.1 33.09 28.96 28.97 24.83-24.83 53.78 95.16-28.96 28.96 41.37 41.37m206.86-206.86-169.62-169.62m169.62 169.62 37.24-37.23-72.41-72.41 130.33 14.48 8.27-8.27m-273.05-66.19 37.23-37.24 53.78 53.78 39.31 2.07-31.03-117.91 4.14-4.13m-103.43 103.43-128.26-95.16 86.88 136.53-37.23 37.23-136.53-86.88m215.14 8.28 75.98-75.99a38.8 38.8 0 0 0 0-54.89m85.37 85.37 12.41 66.19 57.92 4.14m-70.33-70.33-57.92-57.92m57.92 57.92 66.19 12.41 4.14 57.92m0 0 41.37 41.37m-169.62-169.62 4.13-4.14 117.91 31.03-2.07-39.31-53.78-53.78 37.24-37.23m66.19 273.05 8.28-8.27-14.49-130.33 72.41 72.41 37.23-37.24m-591.62 28.96 86.88 136.53-37.23 37.23-136.53-86.88 95.16 128.25m282.84-337.73-114.73-114.73m114.73 114.73a38.8 38.8 0 0 0 54.89 0l75.99-75.98m-245.61-38.75a38.82 38.82 0 0 1 0-54.9M-787.37-787.37l-115.85-223.41 49.65-49.65m66.2 273.06 37.23-37.24-16.55-33.1 33.1-33.1-28.96-28.96-24.83 24.83-53.78-95.16 28.96-28.96-41.37-41.37m66.2 273.06-223.41-115.85-49.65 49.65m273.06 66.2-37.24 37.23-33.1-16.55-33.1 33.1-28.96-28.96 24.83-24.83-95.16-53.78-28.96 28.96-41.37-41.37m206.86-206.86 169.63 169.63m-169.63-169.63 37.24-37.23 72.4 72.4-14.49-130.33 8.28-8.27m66.2 273.05 37.23-37.23-53.78-53.78-2.07-39.31 117.9 31.03 4.14-4.13M-683.94-890.8l95.16 128.25-136.53-86.88-37.23 37.23 86.88 136.53m-8.28-215.13 169.63 169.62m-169.63-169.63 75.99-75.98a38.81 38.81 0 0 1 54.9 0m-85.38-85.37-66.2-12.41-4.13-57.92m70.33 70.33 57.93 57.93m-57.93-57.93-12.4-66.19-57.93-4.14m0 0-41.37-41.37m169.63 169.63 4.13-4.14-31.03-117.91 39.3 2.07 53.79 53.78 37.24-37.23m-273.06-66.2 8.27-8.27 130.33 14.48-72.4-72.4 37.23-37.24m132.39 546.11-33.1 33.1m33.1-33.1 169.63 169.63m-169.63-169.63 75.98-75.98m-109.08 109.08-136.53-78.6 82.75 132.38m53.78-53.78 78.6 136.53-132.38-82.75m0 0-16.55 16.55m0 0-57.92-57.92m57.92 57.92 57.92 57.92m-57.92-57.92-16.55 16.55m-41.37-74.47-136.53-86.88-37.23 37.23 86.88 136.53-128.25-95.16m337.73-282.84 114.73 114.74M-553.07-966.8a38.81 38.81 0 0 1 0-54.89l75.99-75.98m38.74 245.6a38.81 38.81 0 0 1 0 54.9m0-54.9a38.81 38.81 0 0 0 54.9 0m-54.9 54.9a38.81 38.81 0 0 1 54.9 0m274.56 688.28-115.84-223.4m115.84 223.4 37.24-37.23-16.55-33.1 33.1-33.1-28.96-28.95-24.83 24.82-53.78-95.16 28.96-28.96-41.37-41.37m66.2 273.06-223.41-115.85m223.4 115.84-37.23 37.24-33.1-16.55-33.1 33.1-28.95-28.96 24.82-24.83-95.16-53.78-28.96 28.96-41.37-41.37m157.21-157.21 49.65-49.65m-49.65 49.65-223.4-115.85m273.05 66.2L-5.45-212.3m-169.62-169.63 37.23-37.24m-37.23 37.24-41.37-41.37-28.96 28.96-95.16-53.79 24.82-24.82-28.95-28.96-33.1 33.1-33.1-16.55-37.24 37.24m273.06 66.19L-344.7-551.55M-5.44-212.31l37.24-37.23-53.78-53.78-2.07-39.3 117.9 31.02 4.15-4.13M-5.45-212.3 89.71-84.06l-136.53-86.88-37.23 37.23L2.83 2.83m-8.27-215.14L164.18-42.68M-5.45-212.31l75.99-75.98a38.81 38.81 0 0 1 54.9 0m-263.28-130.88 72.4 72.4-14.48-130.31m-57.92 57.91-72.4-72.4 130.32 14.49m0 0 8.28-8.28m111.7 111.7-66.2-12.4-4.13-57.93m70.33 70.34 57.92 57.91m-57.92-57.91-12.4-66.2-57.93-4.14m0 0-41.37-41.37M97.99-315.73l4.13-4.14L71.1-437.78l39.3 2.07 53.79 53.78 37.23-37.23m-273.05-66.2-41.37-41.37m41.37 41.37 8.27-8.27M164.18-42.68l-33.1 33.1m33.1-33.1 169.63 169.63M164.18-42.69l75.98-75.98M131.08-9.58-5.45-88.2 77.3 44.2m53.78-53.78 78.6 136.52L77.3 44.2m0 0L60.75 60.75m0 0L2.83 2.83m57.92 57.92 57.92 57.92M60.75 60.75 44.2 77.3M2.83 2.83-133.7-84.05l-37.23 37.23 86.88 136.53L-212.3-5.45m337.73-282.84 114.73 114.73M125.43-288.29a38.81 38.81 0 0 1 0-54.89l75.98-75.98m38.75 245.6a38.81 38.81 0 0 1 0 54.9m0-54.9a38.81 38.81 0 0 0 54.9 0m-54.9 54.9a38.81 38.81 0 0 1 54.9 0m274.56 688.28-115.84-223.4m115.85 223.4 37.23-37.23-16.55-33.1 33.1-33.1-28.96-28.95-24.83 24.82-53.78-95.16 28.96-28.96-41.37-41.37m66.2 273.06L346.22 453.77m223.4 115.85-37.23 37.23-33.1-16.55-33.1 33.1-28.95-28.96 24.82-24.83-95.16-53.78-28.96 28.96-41.37-41.37m157.21-157.21 49.65-49.65m-49.65 49.65-223.4-115.85m273.05 66.2L673.05 466.2M503.43 296.56l37.23-37.23m-37.23 37.23-41.37-41.37-28.96 28.96-95.16-53.79 24.82-24.82-28.95-28.96-33.1 33.1-33.1-16.55-37.24 37.24m273.06 66.19L333.8 126.94M673.06 466.2l37.24-37.23-53.78-53.78-2.07-39.3 117.9 31.02 4.14-4.13M673.06 466.2l95.16 128.25-136.53-86.88-37.23 37.23 86.88 136.53m-8.28-215.14 169.63 169.63M673.05 466.19l75.99-75.98a38.81 38.81 0 0 1 54.9 0M540.65 259.34l72.4 72.4L598.6 201.4m-57.93 57.93-72.4-72.4L598.6 201.4m0 0 8.27-8.27m111.7 111.7-66.2-12.4-4.13-57.93m70.33 70.34 57.93 57.91m-57.93-57.91-12.4-66.2-57.93-4.14m0 0-41.37-41.37m169.63 169.63 4.13-4.14-31.03-117.91 39.3 2.07 53.79 53.78 37.24-37.23m-273.06-66.2-41.37-41.37m41.37 41.37 8.27-8.27m227.55 450.95-33.1 33.1m33.1-33.1 169.62 169.63M842.68 635.82l75.98-75.98M809.58 668.92l-136.53-78.6L755.8 722.7m53.78-53.78 78.6 136.53L755.8 722.7m0 0-16.55 16.55m0 0-57.92-57.92m57.92 57.92 57.92 57.92m-57.92-57.92L722.7 755.8m-41.37-74.47L544.8 594.45l-37.23 37.23 86.88 136.53-128.26-95.16m337.74-282.84 114.73 114.74M803.93 390.2a38.81 38.81 0 0 1 0-54.89l75.99-75.98m38.74 245.6a38.81 38.81 0 0 1 0 54.9m0-54.9a38.81 38.81 0 0 0 54.9 0m-54.9 54.9a38.81 38.81 0 0 1 54.9 0m274.57 688.29-115.85-223.41m115.85 223.41 37.23-37.24-16.55-33.1 33.1-33.09-28.96-28.96-24.82 24.82-53.79-95.16 28.96-28.96-41.37-41.37m66.2 273.06-223.41-115.85m223.41 115.85-37.24 37.23-33.1-16.55-33.09 33.1-28.96-28.96 24.82-24.82-95.16-53.79-28.96 28.96-41.37-41.37m157.21-157.21 49.65-49.65m-49.65 49.65-223.4-115.85m273.05 66.2 169.62 169.63m-169.62-169.63 37.23-37.23m-37.23 37.23-41.37-41.37-28.96 28.96-95.16-53.78 24.83-24.83-28.96-28.96-33.1 33.1-33.1-16.55-37.24 37.24m273.06 66.2L1012.3 805.44m339.25 339.25 37.24-37.24-53.78-53.78-2.07-39.31 117.91 31.03 4.13-4.13m-103.43 103.43 95.16 128.25-136.53-86.88-37.23 37.23 86.88 136.53m-8.28-215.13 169.63 169.62m-169.63-169.62 75.99-75.99a38.8 38.8 0 0 1 54.89 0m-263.27-130.87 72.41 72.4-14.48-130.33m-57.93 57.93-72.4-72.4 130.33 14.47m0 0 8.27-8.27m111.7 111.7-66.19-12.4-4.14-57.93m70.33 70.34 57.92 57.92m-57.92-57.92-12.41-66.2-57.92-4.14m0 0-41.37-41.37m169.62 169.63 4.14-4.14-31.03-117.91 39.31 2.07 53.78 53.78 37.23-37.23m-273.05-66.2-41.37-41.37m41.37 41.37 8.27-8.27m227.55 450.95-33.1 33.1m33.1-33.1 169.63 169.63m-169.63-169.63 75.98-75.98m-109.08 109.08-136.52-78.61 82.74 132.39m53.78-53.78 78.61 136.53-132.39-82.75m0 0-16.55 16.55m0 0-57.92-57.92m57.92 57.92 57.92 57.92m-57.92-57.92-16.55 16.55m-41.37-74.47-136.53-86.88-37.23 37.23 86.88 136.53-128.25-95.15m337.73-282.85 114.73 114.73m-114.73-114.73a38.8 38.8 0 0 1 0-54.89l75.98-75.98m38.75 245.6a38.82 38.82 0 0 1 0 54.9m0-54.9a38.82 38.82 0 0 0 54.9 0m-54.9 54.9a38.82 38.82 0 0 1 54.9 0M-448.12-448.12l115.84 223.4m-115.85-223.4-37.23 37.23 16.55 33.1-33.1 33.1 28.96 28.96 24.82-24.83 53.79 95.16-28.96 28.96 41.37 41.37m37.24-376.48 37.23-37.24 53.78 53.78 39.3 2.07-31.02-117.9 4.14-4.14M-344.7-551.56l-128.25-95.16 86.88 136.53-37.23 37.23-136.53-86.88m215.14 8.28 75.98-75.99a38.81 38.81 0 0 0 0-54.89m85.36 85.37 12.42 66.2 57.92 4.13m-70.33-70.33L-241.26-655m57.91 57.93 66.2 12.4 4.14 57.93m-128.25-128.25 4.13-4.14 117.91 31.03-2.07-39.3-53.78-53.79 37.23-37.23m-421.99 198.58 86.88 136.53-37.23 37.23-136.53-86.88 95.16 128.25m282.84-337.73-114.74-114.73m114.74 114.73a38.81 38.81 0 0 0 54.89 0l75.98-75.98m-245.6-38.75a38.82 38.82 0 0 1 0-54.9M230.36 230.38l115.85 223.41m-115.85-223.4-37.23 37.23 16.55 33.1-33.1 33.1 28.96 28.96 24.82-24.83 53.79 95.16-28.96 28.96 41.37 41.37m37.24-376.49 37.23-37.23 53.78 53.78 39.3 2.07-31.02-117.9 4.13-4.14M333.8 126.94 205.56 31.8l86.88 136.53-37.23 37.23-136.53-86.88m215.13 8.27 75.99-75.98a38.81 38.81 0 0 0 0-54.89m85.37 85.37 12.4 66.2 57.93 4.13m-70.33-70.33-57.93-57.92m57.93 57.92 66.2 12.4 4.13 57.93M437.24 23.5l4.13-4.13L559.28 50.4l-2.07-39.3-53.78-53.79 37.23-37.23M118.67 118.67l86.88 136.53-37.23 37.23-136.53-86.88 95.16 128.25M409.78-3.93 295.06-118.66M409.79-3.93a38.81 38.81 0 0 0 54.89 0l75.98-75.98m-245.6-38.75a38.81 38.81 0 0 1 0-54.9M908.87 908.88l115.85 223.41m-115.85-223.4-37.23 37.23 16.55 33.1-33.1 33.1 28.96 28.96 24.83-24.83 53.78 95.16-28.96 28.96 41.37 41.37m37.23-376.49 37.24-37.23 53.78 53.78 39.31 2.07-31.03-117.9 4.13-4.14M1012.3 805.44l-128.25-95.16 86.88 136.53-37.23 37.23-136.53-86.88m215.13 8.28 75.99-75.99a38.81 38.81 0 0 0 0-54.89m85.37 85.37 12.41 66.2 57.92 4.13m-70.33-70.33L1115.73 702m57.93 57.93 66.19 12.4 4.14 57.93m-128.26-128.25 4.14-4.14 117.91 31.03-2.07-39.3-53.78-53.79 37.23-37.23M797.17 797.17l86.88 136.53-37.23 37.23-136.53-86.88 95.16 128.26m282.84-337.74L973.56 559.84m114.73 114.73a38.81 38.81 0 0 0 54.89 0l75.98-75.98m-245.6-38.75a38.81 38.81 0 0 1 0-54.9m613.82 1082.44 223.4 115.84 49.65-49.65m-273.05-66.19 37.23-37.24 33.1 16.55 33.1-33.1 28.96 28.96-24.83 24.83 95.16 53.78 28.96-28.96 41.37 41.37m-273.05-66.19 115.84 223.4-49.65 49.65m-66.19-273.05-37.24 37.23 16.55 33.1-33.1 33.1 28.96 28.96 24.83-24.83 53.78 95.16-28.96 28.96 41.37 41.37m206.86-206.86-169.62-169.62m169.62 169.62 37.24-37.23-72.41-72.41 130.33 14.49 8.27-8.28m-273.05-66.19 37.23-37.24 53.78 53.78 39.31 2.07-31.03-117.91 4.14-4.13m-103.43 103.43-128.26-95.16 86.88 136.53-37.23 37.23-136.53-86.88m215.14 8.28 75.98-75.99a38.8 38.8 0 0 0 0-54.89m85.37 85.37 12.41 66.19 57.92 4.14m-70.33-70.33-57.92-57.92m57.92 57.92 66.19 12.41 4.14 57.92m0 0 41.37 41.37m-169.62-169.62 4.13-4.14 117.91 31.03-2.07-39.31-53.78-53.78 37.23-37.23m66.2 273.05 8.27-8.27-14.48-130.33 72.41 72.41 37.23-37.24m-591.62 28.96 86.88 136.53-37.23 37.23-136.53-86.88 95.16 128.26m282.84-337.74-114.73-114.73m114.73 114.73a38.8 38.8 0 0 0 54.89 0l75.98-75.98m-245.6-38.75a38.82 38.82 0 0 1 0-54.9M-373.65-1201.09-489.5-1424.5l49.65-49.65m66.2 273.06 37.23-37.24-16.55-33.1 33.1-33.09-28.96-28.96-24.82 24.82-53.79-95.16 28.96-28.96-41.37-41.37m66.2 273.06-223.41-115.85-49.65 49.65m273.06 66.2-37.24 37.23-33.1-16.55-33.1 33.1-28.96-28.96 24.83-24.82-95.16-53.79-28.96 28.96-41.37-41.37m206.86-206.86 169.62 169.63m-169.62-169.63 37.23-37.23 72.4 72.4-14.47-130.32 8.27-8.28m66.2 273.06 37.23-37.24-53.78-53.78-2.07-39.31 117.9 31.03 4.14-4.13m-103.43 103.43 95.16 128.25-136.53-86.88-37.23 37.23 86.88 136.53m-8.28-215.13 169.63 169.62m-169.63-169.62 75.99-75.99a38.81 38.81 0 0 1 54.89 0m-85.37-85.36-66.2-12.42-4.13-57.92m70.33 70.34 57.92 57.92m-57.92-57.92-12.4-66.2-57.93-4.14m0 0-41.37-41.37m169.62 169.63 4.14-4.14-31.03-117.91 39.3 2.07 53.79 53.78 37.23-37.23m-273.05-66.2 8.27-8.27 130.33 14.48-72.4-72.4 37.23-37.24m132.39 546.11-33.1 33.1m33.1-33.1L69.02-965.27M-100.6-1134.9l75.98-75.98M-133.7-1101.8l-136.53-78.61 82.75 132.39m53.78-53.78 78.6 136.53-132.38-82.75m0 0-16.55 16.55m0 0-57.92-57.92m57.92 57.92 57.92 57.92m-57.92-57.92-16.55 16.55m-41.37-74.47-136.53-86.88-37.23 37.23 86.88 136.53-128.25-95.15m337.73-282.85 114.73 114.74m-114.73-114.74a38.81 38.81 0 0 1 0-54.89l75.98-75.98m38.75 245.61a38.81 38.81 0 0 1 0 54.89m0-54.89a38.83 38.83 0 0 0 54.9 0m-54.9 54.89a38.81 38.81 0 0 1 54.9 0m274.57 688.29L189-746m115.85 223.4 37.23-37.23-16.55-33.1 33.1-33.1-28.96-28.96-24.82 24.83-53.79-95.16 28.96-28.96-41.37-41.37m66.2 273.06L81.44-638.44m223.4 115.85-37.23 37.23-33.1-16.55-33.1 33.1-28.96-28.96 24.83-24.82-95.16-53.79-28.96 28.96-41.37-41.37M189-746l49.65-49.65M189-746-34.4-861.84m273.05 66.2 169.62 169.62M238.65-795.65l37.23-37.23m-37.23 37.23-41.37-41.37-28.96 28.96-95.16-53.78L98-886.67l-28.97-28.96-33.1 33.1-33.1-16.55-37.23 37.24m273.06 66.2L69.02-965.28m339.25 339.25 37.24-37.24-53.78-53.78-2.07-39.3 117.9 31.02 4.14-4.13M408.27-626.02l95.16 128.25-136.53-86.88-37.23 37.23 86.88 136.53m-8.28-215.13L577.9-456.4M408.27-626.02l75.99-75.99a38.81 38.81 0 0 1 54.89 0M275.88-832.88l72.4 72.4-14.47-130.32m-57.93 57.92-72.4-72.4 130.33 14.48m0 0 8.27-8.28m111.7 111.7-66.2-12.4-4.13-57.93m70.33 70.34 57.92 57.92m-57.92-57.92-12.4-66.2-57.93-4.14m0 0-41.37-41.37M511.7-729.45l4.14-4.14-31.03-117.91 39.3 2.07 53.79 53.78 37.23-37.23m-273.05-66.2-41.37-41.37m41.37 41.37 8.27-8.27M577.9-456.4l-33.1 33.1m33.1-33.1 169.62 169.63M577.9-456.4l75.98-75.98M544.8-423.3l-136.53-78.6 82.75 132.38m53.78-53.78 78.6 136.53-132.38-82.75m0 0-16.55 16.55m0 0-57.92-57.92m57.92 57.92 57.92 57.92m-57.92-57.92-16.55 16.55m-41.37-74.47-136.53-86.88-37.23 37.23L329.67-324 201.4-419.16m337.74-282.85 114.73 114.74M539.15-702.01a38.81 38.81 0 0 1 0-54.89l75.98-75.98m38.75 245.6a38.81 38.81 0 0 1 0 54.9m0-54.9a38.81 38.81 0 0 0 54.9 0m-54.9 54.9a38.81 38.81 0 0 1 54.9 0M983.35 155.9 867.5-67.5m115.85 223.4 37.23-37.23-16.55-33.1 33.1-33.1-28.96-28.95-24.82 24.82-53.79-95.16 28.96-28.96-41.37-41.37m66.2 273.06L759.94 40.06m223.4 115.85-37.23 37.23-33.1-16.55-33.1 33.1-28.96-28.96 24.83-24.82-95.16-53.79-28.96 28.96-41.37-41.37M867.5-67.5l49.65-49.65M867.5-67.5 644.1-183.34m273.05 66.2 169.62 169.62M917.15-117.15l37.23-37.23m-37.23 37.23-41.37-41.37-28.96 28.96-95.16-53.78 24.83-24.83-28.97-28.96-33.1 33.1-33.09-16.55-37.24 37.24m273.06 66.2L747.52-286.78m339.25 339.25 37.24-37.24-53.78-53.78-2.07-39.3 117.91 31.02 4.13-4.13M1086.77 52.48l95.16 128.25-136.53-86.88-37.23 37.23 86.88 136.53m-8.28-215.13L1256.4 222.1M1086.77 52.48l75.99-75.99a38.81 38.81 0 0 1 54.89 0M954.38-154.38l72.4 72.4-14.48-130.32m-57.92 57.92-72.4-72.4 130.32 14.48m0 0 8.28-8.28m111.7 111.7-66.19-12.4-4.14-57.93m70.33 70.34 57.92 57.92m-57.92-57.92-12.41-66.2-57.92-4.14m0 0-41.37-41.37M1190.2-50.95l4.14-4.14L1163.31-173l39.31 2.07 53.78 53.78 37.23-37.23m-273.05-66.2-41.37-41.37m41.37 41.37 8.27-8.27M1256.4 222.1l-33.1 33.1m33.1-33.1 169.62 169.63M1256.4 222.1l75.98-75.98M1223.3 255.2l-136.53-78.6 82.75 132.38m53.78-53.78 78.61 136.53-132.39-82.75m0 0-16.55 16.55m0 0-57.92-57.92m57.92 57.92 57.92 57.92m-57.92-57.92-16.55 16.55m-41.37-74.47-136.53-86.88-37.23 37.23 86.88 136.53-128.25-95.15m337.73-282.85 114.73 114.74M1217.65-23.51a38.81 38.81 0 0 1 0-54.89l75.98-75.98m38.75 245.6a38.81 38.81 0 0 1 0 54.9m0-54.9a38.83 38.83 0 0 0 54.9 0m-54.9 54.9a38.81 38.81 0 0 1 54.89 0m274.57 688.29L1546 611m115.84 223.4 37.24-37.23-16.55-33.1 33.1-33.1-28.96-28.95-24.83 24.82-53.78-95.16 28.96-28.96-41.37-41.37m66.19 273.06-223.4-115.85m223.4 115.85-37.23 37.23-33.1-16.55-33.1 33.1-28.96-28.96 24.83-24.82-95.16-53.79-28.96 28.96-41.37-41.37M1546 611l49.65-49.65M1546 611l-223.41-115.84m273.06 66.2 169.62 169.62m-169.62-169.63 37.23-37.23m-37.23 37.23-41.37-41.37-28.96 28.96-95.16-53.78 24.83-24.83-28.97-28.96-33.09 33.1-33.1-16.55-37.24 37.24m273.06 66.2-169.63-169.63m339.25 339.25 37.24-37.24-53.78-53.78-2.07-39.3 117.91 31.02 4.13-4.13m-103.43 103.43 95.16 128.25-136.53-86.88-37.23 37.23 86.88 136.53m-8.28-215.13L1934.9 900.6m-169.63-169.62 75.99-75.99a38.81 38.81 0 0 1 54.89 0m-263.27-130.87 72.4 72.4-14.48-130.32m-57.92 57.92-72.4-72.4 130.32 14.48m0 0 8.28-8.28m111.7 111.7-66.19-12.4-4.14-57.93m70.33 70.34 57.92 57.92m-57.92-57.92-12.41-66.2-57.92-4.14m0 0-41.37-41.37m169.62 169.63 4.14-4.14-31.03-117.91 39.31 2.07 53.78 53.78 37.23-37.23m-273.05-66.2-41.37-41.37m41.37 41.37 8.27-8.27M1934.9 900.6l-33.1 33.1m33.1-33.1 169.62 169.63M1934.9 900.6l75.98-75.98M1901.8 933.7l-136.53-78.6 82.75 132.38m53.78-53.78 78.61 136.53-132.39-82.75m0 0-16.55 16.55m0 0-57.92-57.92m57.92 57.92 57.92 57.92m-57.92-57.92-16.55 16.55m-41.37-74.47-136.53-86.88-37.23 37.23 86.88 136.53-128.26-95.15m337.74-282.85 114.73 114.74m-114.73-114.74a38.81 38.81 0 0 1 0-54.89l75.98-75.98m38.75 245.6a38.81 38.81 0 0 1 0 54.9m0-54.9a38.82 38.82 0 0 0 54.9 0m-54.9 54.9a38.82 38.82 0 0 1 54.9 0M-34.41-861.84l115.85 223.4M-34.4-861.84l-37.24 37.23 16.55 33.1-33.1 33.1 28.96 28.96 24.82-24.83 53.79 95.16-28.96 28.96 41.37 41.37m37.23-376.48 37.24-37.24 53.78 53.78 39.3 2.07-31.02-117.91 4.13-4.13M69.02-965.27l-128.25-95.16L27.65-923.9l-37.23 37.23-136.53-86.88m215.13 8.28 75.99-75.99a38.81 38.81 0 0 0 0-54.89m85.37 85.37 12.4 66.2 57.93 4.13m-70.33-70.33-57.93-57.92m57.93 57.92 66.19 12.4 4.14 57.93M172.45-1068.7l4.14-4.14 117.91 31.03-2.07-39.31-53.78-53.78 37.23-37.23M-146.1-973.55l86.88 136.53-37.23 37.23L-233-886.67l95.15 128.26m282.85-337.74L30.27-1210.88m114.74 114.73a38.81 38.81 0 0 0 54.89 0l75.98-75.98m-245.6-38.75a38.81 38.81 0 0 1 0-54.89M644.1-183.34l115.84 223.4m-115.85-223.4-37.23 37.23 16.55 33.1-33.1 33.1 28.96 28.96 24.83-24.83 53.78 95.16-28.96 28.96 41.37 41.37m37.23-376.48 37.24-37.24 53.78 53.78 39.3 2.07-31.02-117.9 4.13-4.14M747.52-286.77l-128.25-95.16 86.88 136.53-37.23 37.23-136.53-86.88m215.13 8.28 75.99-75.99a38.81 38.81 0 0 0 0-54.89m85.37 85.37 12.4 66.2 57.93 4.13m-70.34-70.33-57.92-57.92m57.92 57.92 66.2 12.4 4.14 57.93M850.95-390.2l4.14-4.14L973-363.31l-2.07-39.3-53.78-53.79 37.24-37.23m-422 198.58 86.88 136.53-37.23 37.23-136.53-86.88L540.66-79.9m282.85-337.74L708.77-532.38m114.74 114.73a38.81 38.81 0 0 0 54.89 0l75.99-75.98m-245.62-38.75a38.81 38.81 0 0 1 0-54.9M1322.6 495.17l115.85 223.4m-115.85-223.4-37.23 37.23 16.55 33.1-33.1 33.1 28.96 28.96 24.82-24.83 53.79 95.16-28.96 28.96 41.37 41.37m37.23-376.48 37.24-37.24 53.78 53.78 39.31 2.07-31.03-117.9 4.13-4.14m-103.43 103.43-128.25-95.16 86.88 136.53-37.23 37.23-136.53-86.88m215.13 8.28 75.99-75.99a38.81 38.81 0 0 0 0-54.89m85.36 85.37 12.42 66.2 57.92 4.13m-70.34-70.33-57.92-57.92m57.92 57.92 66.2 12.4 4.14 57.93M1529.45 288.3l4.14-4.14 117.91 31.03-2.07-39.3-53.78-53.79 37.23-37.23m-421.99 198.58 86.88 136.53-37.23 37.23-136.53-86.88 95.15 128.26m282.85-337.74-114.74-114.73m114.74 114.73a38.81 38.81 0 0 0 54.89 0l75.98-75.98m-245.61-38.75a38.82 38.82 0 0 1 .01-54.9m613.81 1082.44 223.41 115.84 49.65-49.65m-273.06-66.19 37.24-37.24 33.1 16.55 33.09-33.1 28.97 28.96-24.83 24.83 95.16 53.78 28.96-28.96 41.37 41.37m-273.06-66.19 115.85 223.4-49.65 49.65m-66.2-273.05-37.23 37.23 16.55 33.1-33.1 33.1 28.96 28.96 24.82-24.83 53.79 95.16-28.96 28.96 41.37 41.37m206.86-206.86-169.63-169.62m169.63 169.62 37.23-37.23-72.4-72.4 130.33 14.48 8.27-8.28m-273.06-66.19 37.24-37.24 53.78 53.79 39.31 2.06-31.03-117.9 4.13-4.14m-103.43 103.43-128.25-95.16 86.88 136.53-37.23 37.23-136.53-86.88m215.13 8.28 75.99-75.99a38.81 38.81 0 0 0 0-54.89m85.37 85.37 12.41 66.19 57.92 4.14m-70.33-70.33-57.93-57.92m57.93 57.92 66.19 12.41 4.14 57.92m0 0 41.37 41.37M2207.95 966.8l4.14-4.14L2330 993.69l-2.07-39.3-53.78-53.79 37.23-37.23m66.2 273.05 8.27-8.27-14.48-130.33 72.4 72.41 37.24-37.24m-591.62 28.96 86.88 136.53-37.23 37.23-136.53-86.88 95.15 128.26m282.85-337.74-114.73-114.73m114.73 114.73a38.81 38.81 0 0 0 54.89 0l75.98-75.98m-245.6-38.75a38.81 38.81 0 0 1 0-54.9M40.06-1614.8l-115.84-223.41 49.65-49.65m66.2 273.06 37.23-37.24-16.55-33.1 33.1-33.09-28.96-28.96-24.83 24.82-53.78-95.16 28.96-28.96-41.37-41.37m66.2 273.06-223.41-115.85-49.65 49.65m273.05 66.2-37.23 37.23-33.1-16.55-33.1 33.1-28.96-28.96 24.83-24.82-95.16-53.79-28.96 28.96-41.37-41.37m206.86-206.86 169.62 169.63m-169.62-169.63 37.23-37.23 72.4 72.4-14.48-130.32 8.28-8.28m66.2 273.06 37.23-37.24-53.78-53.78-2.07-39.31 117.9 31.03 4.14-4.13M143.5-1718.24l95.16 128.25-136.53-86.88-37.23 37.23 86.88 136.53m-8.28-215.13 169.63 169.62m-169.63-169.62 75.99-75.99a38.81 38.81 0 0 1 54.89 0M189-1879.59l-66.2-12.42-4.13-57.92m70.33 70.34 57.92 57.92M189-1879.59l-12.4-66.2-57.93-4.14m0 0L77.3-1991.3m169.62 169.63 4.14-4.14-31.03-117.91 39.3 2.07 53.79 53.78 37.23-37.23M77.3-1991.3l8.27-8.27 130.32 14.48-72.4-72.4 37.24-37.24m132.39 546.11-33.1 33.1m33.1-33.1 169.62 169.63m-169.62-169.63 75.98-75.98m-109.08 109.08-136.53-78.61 82.75 132.39m53.78-53.78 78.6 136.53-132.38-82.75m0 0-16.55 16.55m0 0-57.92-57.92m57.92 57.92 57.92 57.92m-57.92-57.92-16.55 16.55m-41.37-74.47-136.53-86.88-37.23 37.23 86.88 136.53-128.26-95.15m337.74-282.85 114.73 114.74m-114.73-114.74a38.81 38.81 0 0 1 0-54.89l75.98-75.98m38.75 245.61a38.81 38.81 0 0 1 0 54.89m0-54.89a38.83 38.83 0 0 0 54.9 0m-54.9 54.89a38.81 38.81 0 0 1 54.9 0m274.56 688.29-115.84-223.41m115.84 223.4 37.24-37.23-16.55-33.1 33.1-33.09-28.96-28.96-24.83 24.82-53.78-95.16 28.96-28.96-41.37-41.37m66.2 273.06-223.42-115.85m223.41 115.85-37.23 37.23-33.1-16.55-33.1 33.1-28.96-28.96L611-936.31l-95.16-53.79-28.96 28.96-41.37-41.37m157.21-157.21 49.65-49.65m-49.65 49.65-223.4-115.84m273.05 66.19 169.62 169.63m-169.62-169.63 37.23-37.23m-37.23 37.23L611-1250.74l-28.96 28.96-95.16-53.78 24.82-24.83-28.96-28.96-33.1 33.1-33.1-16.55-37.23 37.24m273.06 66.19-169.63-169.62M822-1039.74l37.24-37.24-53.78-53.78-2.07-39.31 117.9 31.03 4.14-4.13M822-1039.74l95.16 128.25-136.53-86.88-37.23 37.23 86.88 136.53m-8.28-215.13 169.63 169.62m-169.63-169.62 75.99-75.99a38.81 38.81 0 0 1 54.89 0M689.6-1246.6l72.4 72.4-14.48-130.32m-57.92 57.92-72.4-72.4 130.32 14.48m0 0 8.28-8.28m111.7 111.71-66.2-12.42-4.13-57.92m70.33 70.34 57.92 57.92m-57.92-57.92-12.4-66.2-57.93-4.14m0 0-41.37-41.37m169.62 169.63 4.14-4.14-31.03-117.91 39.3 2.07 53.79 53.78 37.23-37.23m-273.05-66.2-41.37-41.37m41.37 41.37 8.27-8.27m227.55 450.95-33.1 33.1m33.1-33.1 169.62 169.63M991.62-870.12l75.98-75.98M958.52-837.02 822-915.62l82.75 132.38m53.78-53.78 78.61 136.53-132.4-82.75m0 0-16.54 16.55m0 0-57.92-57.92m57.92 57.92 57.92 57.92m-57.92-57.92-16.55 16.55m-41.37-74.47-136.53-86.88-37.23 37.23 86.88 136.53-128.26-95.15m337.74-282.85 114.73 114.74m-114.73-114.74a38.81 38.81 0 0 1 0-54.89l75.98-75.98m38.75 245.61a38.8 38.8 0 0 1 0 54.89m0-54.89a38.82 38.82 0 0 0 54.89 0m-54.89 54.89a38.81 38.81 0 0 1 54.89 0m274.57 688.29-115.84-223.41m115.84 223.4 37.24-37.23-16.55-33.1 33.1-33.1-28.96-28.95-24.83 24.82-53.78-95.16 28.96-28.96-41.37-41.37m66.19 273.06-223.4-115.84m223.4 115.84-37.23 37.23-33.1-16.55-33.1 33.1-28.96-28.96 24.83-24.82-95.16-53.79-28.96 28.96-41.37-41.37m157.21-157.21 49.65-49.65m-49.65 49.65-223.41-115.84m273.06 66.2 169.62 169.62m-169.62-169.63 37.23-37.23m-37.23 37.23-41.37-41.37-28.96 28.96-95.16-53.78 24.82-24.83-28.96-28.96-33.09 33.1-33.1-16.55-37.24 37.24m273.06 66.2L1161.24-700.5m339.25 339.25 37.24-37.24-53.78-53.78-2.07-39.3 117.91 31.02 4.13-4.13m-103.43 103.43L1595.65-233l-136.53-86.88-37.23 37.23 86.88 136.53m-8.28-215.13 169.63 169.62m-169.63-169.62 75.99-75.99a38.81 38.81 0 0 1 54.89 0M1368.1-568.1l72.4 72.4-14.48-130.32m-57.92 57.92-72.4-72.4 130.32 14.48m0 0 8.28-8.28M1546-522.6l-66.19-12.4-4.14-57.93m70.33 70.34 57.92 57.92M1546-522.6l-12.41-66.2-57.92-4.14m0 0-41.37-41.37m169.62 169.63 4.14-4.14-31.03-117.91 39.31 2.07 53.78 53.78 37.23-37.23m-273.05-66.2-41.37-41.37m41.37 41.37 8.27-8.27m227.55 450.95-33.1 33.1m33.1-33.1 169.62 169.63m-169.62-169.63 75.98-75.98m-109.08 109.08-136.53-78.6 82.75 132.38m53.78-53.78L1715.63-22l-132.39-82.75m0 0-16.55 16.55m0 0-57.92-57.92m57.92 57.92 57.92 57.92m-57.92-57.92-16.55 16.55m-41.37-74.47-136.53-86.88-37.23 37.23 86.88 136.53-128.26-95.15m337.74-282.85 114.73 114.74m-114.73-114.74a38.81 38.81 0 0 1 0-54.89l75.98-75.98m38.75 245.6a38.81 38.81 0 0 1 0 54.9m0-54.9a38.81 38.81 0 0 0 54.89 0m-54.89 54.9a38.81 38.81 0 0 1 54.89 0m274.57 688.29-115.84-223.41m115.84 223.4 37.24-37.23-16.55-33.1 33.1-33.1-28.96-28.95-24.83 24.82-53.78-95.16 28.96-28.96-41.37-41.37m66.19 273.06-223.4-115.84m223.4 115.84-37.23 37.23-33.1-16.55-33.1 33.1-28.96-28.96 24.83-24.82-95.16-53.79-28.96 28.96-41.37-41.37m157.21-157.21 49.65-49.65m-49.65 49.65L1736.31 81.44m273.06 66.2 169.62 169.62m-169.62-169.63 37.23-37.23m-37.23 37.23L1968 106.26l-28.96 28.96-95.16-53.78 24.82-24.83-28.96-28.96-33.09 33.1-33.1-16.55-37.24 37.24m273.06 66.2L1839.74-22m339.25 339.25 37.24-37.24-53.78-53.78-2.07-39.3 117.91 31.02 4.13-4.13m-103.43 103.43 95.16 128.25-136.53-86.88-37.23 37.23 86.88 136.53m-8.28-215.13 169.63 169.62m-169.63-169.62 75.99-75.99a38.81 38.81 0 0 1 54.89 0M2046.6 110.4l72.4 72.4-14.48-130.32m-57.92 57.92L1974.2 38l130.32 14.48m0 0 8.28-8.28m111.7 111.7-66.19-12.4-4.14-57.93m70.33 70.34 57.92 57.92m-57.92-57.92-12.41-66.2-57.92-4.14m0 0L2112.8 44.2m169.62 169.63 4.14-4.14-31.03-117.91 39.31 2.07 53.78 53.78 37.23-37.23M2112.8 44.2l-41.37-41.37m41.37 41.37 8.27-8.27m227.55 450.95-33.1 33.1m33.1-33.1 169.62 169.63m-169.62-169.63 75.98-75.98m-109.08 109.08-136.53-78.6 82.75 132.38m53.78-53.78 78.61 136.53-132.39-82.75m0 0-16.55 16.55m0 0-57.92-57.92m57.92 57.92 57.92 57.92m-57.92-57.92-16.55 16.55m-41.37-74.47-136.53-86.88-37.23 37.24 86.88 136.52-128.26-95.15m337.74-282.85 114.73 114.74m-114.73-114.74a38.81 38.81 0 0 1 0-54.89l75.98-75.98M2424.6 356a38.81 38.81 0 0 1 0 54.9m0-54.9a38.81 38.81 0 0 0 54.89 0m-54.89 54.9a38.81 38.81 0 0 1 54.89 0M379.31-1275.56l115.84 223.4m-115.84-223.4-37.23 37.23 16.55 33.1-33.1 33.1 28.96 28.96 24.82-24.83 53.79 95.16-28.96 28.96 41.37 41.37m37.23-376.48 37.24-37.24 53.78 53.78 39.3 2.07-31.02-117.91 4.13-4.13m-103.43 103.43-128.25-95.16 86.88 136.53-37.23 37.23-136.53-86.88m215.13 8.28 75.99-75.99a38.81 38.81 0 0 0 0-54.89m85.37 85.37 12.4 66.19 57.93 4.14m-70.33-70.33-57.93-57.92m57.93 57.92 66.19 12.41 4.14 57.92m-128.26-128.25 4.14-4.14 117.91 31.03-2.07-39.31-53.78-53.78 37.23-37.23m-421.99 198.58 86.88 136.53-37.23 37.23-136.53-86.88 95.15 128.26m282.85-337.74L443.99-1624.6m114.74 114.73a38.81 38.81 0 0 0 54.89 0l75.98-75.98M444-1624.6a38.81 38.81 0 0 1 0-54.89M1057.8-597.06l115.85 223.4m-115.85-223.4-37.23 37.23 16.55 33.1-33.1 33.1 28.96 28.96 24.82-24.83 53.79 95.16-28.96 28.96 41.37 41.37m37.23-376.48 37.24-37.24 53.78 53.78 39.31 2.07-31.03-117.9 4.13-4.14M1161.24-700.5l-128.25-95.16 86.88 136.53-37.23 37.23-136.53-86.88m215.13 8.28 75.99-75.99a38.81 38.81 0 0 0 0-54.89m85.36 85.37 12.42 66.2 57.92 4.13M1322.59-746l-57.92-57.92m57.92 57.92 66.2 12.4 4.14 57.93m-128.26-128.25 4.14-4.14 117.91 31.03-2.07-39.3-53.78-53.79 37.23-37.23M946.11-708.77l86.88 136.53-37.23 37.23-136.53-86.88 95.15 128.26m282.85-337.74L1122.49-946.1m114.74 114.73a38.81 38.81 0 0 0 54.89 0l75.98-75.98m-245.61-38.75a38.82 38.82 0 0 1 0-54.89M1736.31 81.44l115.85 223.4m-115.85-223.4-37.23 37.23 16.55 33.1-33.1 33.1 28.96 28.96 24.82-24.83 53.79 95.16-28.96 28.96 41.37 41.37m37.23-376.48 37.24-37.24 53.78 53.78 39.31 2.07-31.03-117.9 4.13-4.14M1839.74-22l-128.25-95.16 86.88 136.53-37.23 37.23-136.53-86.88m215.13 8.28 75.99-75.99a38.81 38.81 0 0 0 0-54.89m85.36 85.37 12.42 66.2 57.92 4.13m-70.34-70.33-57.92-57.92m57.92 57.92 66.2 12.4 4.14 57.93m-128.26-128.25 4.14-4.14 117.91 31.03-2.07-39.3-53.78-53.79 37.23-37.23M1624.61-30.27l86.88 136.53-37.23 37.23-136.53-86.88 95.15 128.26m282.85-337.74L1800.99-267.6m114.74 114.73a38.81 38.81 0 0 0 54.89 0l75.98-75.98m-245.61-38.75a38.83 38.83 0 0 1 0-54.9m613.82 1082.44 223.41 115.84 49.65-49.65m-273.06-66.2 37.24-37.23 33.1 16.55 33.09-33.1 28.96 28.96-24.82 24.83 95.16 53.78 28.96-28.96 41.37 41.37m-273.06-66.2 115.85 223.42-49.65 49.64m-66.2-273.05-37.23 37.23 16.55 33.1-33.1 33.1 28.96 28.96 24.82-24.83 53.79 95.16-28.96 28.96 41.37 41.37m206.86-206.86-169.63-169.62m169.63 169.62 37.23-37.23-72.4-72.4 130.32 14.48 8.28-8.28m-273.06-66.2 37.24-37.23 53.78 53.78 39.31 2.07-31.03-117.9 4.13-4.14M2518.24 656.5l-128.25-95.16 86.88 136.53-37.23 37.23-136.53-86.88m215.13 8.28 75.99-75.99a38.81 38.81 0 0 0 0-54.89M2679.6 611l12.41 66.2 57.92 4.13M2679.6 611l-57.93-57.92M2679.6 611l66.19 12.4 4.14 57.93m0 0 41.37 41.37m-169.63-169.62 4.14-4.14 117.91 31.03-2.07-39.3-53.78-53.79 37.23-37.23m66.2 273.05 8.27-8.27-14.48-130.32 72.4 72.4 37.24-37.24m-591.62 28.96 86.88 136.53-37.23 37.23-136.53-86.88 95.15 128.26m282.85-337.74L2479.49 410.9m114.74 114.73a38.81 38.81 0 0 0 54.89 0l75.98-75.98m-245.61-38.75a38.83 38.83 0 0 1 0-54.9M-1887.87-26.12l169.63 169.62m0 0 169.62 169.63m0 0 33.1-33.1m-33.1 33.1 169.63 169.62m-169.63-169.62-75.98 75.98m109.08-109.08-78.61-136.53 132.39 82.75m-53.78 53.78 136.53 78.6-82.75-132.38m302.02 376.48-49.65 49.65m0 0 169.63 169.62m-169.63-169.62-37.23 37.23m37.23-37.23-169.62-169.63M-1039.74 822l169.62 169.63M-1246.6 689.6l72.4 72.4-130.32-14.48m57.92-57.92-72.4-72.4 14.48 130.32m434.4 244.1 33.1-33.1m-33.1 33.1 169.63 169.62m-169.63-169.62-75.98 75.98m109.08-109.08L-915.62 822l132.38 82.75m-53.78 53.78 136.53 78.61-82.75-132.4m302.02 376.49-49.65 49.65m0 0 169.63 169.62m-169.63-169.62-37.23 37.23m37.23-37.23-169.62-169.63m339.25 339.25 169.62 169.63M-568.1 1368.1l72.4 72.4-130.32-14.48m57.92-57.92-72.4-72.4 14.48 130.32m434.4 244.1 33.1-33.1m-33.1 33.1 169.63 169.62m-169.63-169.62-75.98 75.98m109.08-109.08-78.6-136.53 132.38 82.75m-53.78 53.78L-22 1715.63l-82.75-132.39m302.02 376.48-49.65 49.65m0 0 169.63 169.62m-169.63-169.62-37.23 37.23m37.23-37.23-169.62-169.63m339.25 339.25 169.62 169.63M110.4 2046.6l72.4 72.4-130.32-14.48m57.92-57.92L38 1974.2l14.48 130.32m434.4 244.1 33.1-33.1m-33.1 33.1 169.63 169.62m-169.63-169.62-75.98 75.98m109.08-109.08-78.6-136.53 132.38 82.75m-53.78 53.78 136.53 78.61-82.75-132.39m252.37 426.13-169.62-169.63M-1474.15-439.85l169.63 169.63m0 0 169.62 169.62m0 0 33.1-33.1m-33.1 33.1 169.63 169.62M-1134.9-100.6l-75.98 75.98m109.08-109.08-78.61-136.53 132.39 82.75m-53.78 53.78 136.52 78.6-82.74-132.38M-746 189l-49.65 49.65m0 0 169.63 169.62m-169.63-169.62-37.23 37.23m37.23-37.23L-965.28 69.02m339.25 339.25L-456.4 577.9m-376.48-302.02 72.4 72.4-130.32-14.47m57.92-57.93-72.4-72.4 14.48 130.33m434.4 244.09 33.1-33.1m-33.1 33.1 169.63 169.63M-456.4 577.9l-75.98 75.98M-423.3 544.8l-78.6-136.52 132.38 82.74m-53.78 53.78 136.53 78.6-82.75-132.38M-67.5 867.5l-49.65 49.65m0 0 169.63 169.62m-169.63-169.62-37.23 37.24m37.23-37.24-169.62-169.63m339.25 339.25L222.1 1256.4m-376.49-302.02 72.4 72.41-130.32-14.48m57.93-57.92-72.4-72.4 14.47 130.32M222.1 1256.4l33.1-33.1m-33.1 33.1 169.63 169.62M222.1 1256.4l-75.98 75.98M255.2 1223.3l-78.6-136.53 132.38 82.75m-53.78 53.78 136.53 78.61-82.75-132.39M611 1546l-49.65 49.65m0 0 169.63 169.62m-169.63-169.62-37.23 37.23m37.23-37.23-169.62-169.63m339.25 339.25L900.6 1934.9m-376.48-302.02 72.4 72.41-130.32-14.48m57.92-57.93-72.4-72.4 14.47 130.33M900.6 1934.9l33.1-33.1m-33.1 33.1 169.63 169.62M900.6 1934.9l-75.98 75.98M933.7 1901.8l-78.6-136.53 132.38 82.75m-53.78 53.78 136.53 78.61-82.75-132.39m252.37 426.13-169.62-169.63M-1060.43-853.57l169.63 169.63m0 0 169.62 169.62m0 0 33.1-33.1m-33.1 33.1 169.63 169.63m-169.63-169.63-75.98 75.98m109.08-109.08-78.6-136.53 132.38 82.75m-53.78 53.78 136.53 78.6-82.75-132.38m302.02 376.48-49.65 49.65m0 0L-212.3-5.45m-169.63-169.62-37.24 37.23m37.24-37.23L-551.55-344.7M-212.31-5.44l169.63 169.63m-376.49-302.01 72.4 72.4-130.31-14.48m57.91-57.93-72.4-72.4 14.49 130.32m434.4 244.1 33.1-33.1m-33.1 33.1 169.63 169.63M-42.69 164.18l-75.98 75.98M-9.58 131.08-88.18-5.45 44.2 77.3m-53.78 53.78 136.52 78.6L44.2 77.3m302.02 376.48-49.65 49.65m0 0L466.2 673.05M296.56 503.43l-37.24 37.23m37.24-37.23L126.94 333.8M466.2 673.06l169.63 169.63M259.33 540.67l72.4 72.4-130.32-14.48m57.92-57.93-72.4-72.4 14.48 130.33m434.41 244.09 33.1-33.1m-33.1 33.1 169.63 169.63M635.82 842.68l-75.98 75.98m109.08-109.08-78.6-136.53L722.7 755.8m-53.78 53.78 136.53 78.6L722.7 755.8m302.02 376.48-49.65 49.65m0 0 169.63 169.63m-169.63-169.63-37.24 37.23m37.24-37.23-169.63-169.62m339.26 339.25 169.62 169.62m-376.48-302.02 72.4 72.41-130.33-14.48m57.93-57.93-72.4-72.4 14.47 130.33m434.41 244.09 33.1-33.1m-33.1 33.1 169.63 169.63m-169.63-169.63-75.98 75.98m109.08-109.08-78.61-136.52 132.39 82.74m-53.78 53.78 136.53 78.61-82.75-132.39m252.37 426.13-169.62-169.62m-2130.66-2958.1 169.63 169.63m0 0 169.62 169.62m0 0 33.1-33.1m-33.1 33.1 169.62 169.63m-169.62-169.63-75.99 75.99m109.09-109.09-78.61-136.52 132.39 82.74m-53.78 53.78 136.52 78.61-82.74-132.39M81.44-638.44l-49.65 49.65m0 0 169.62 169.63M31.8-588.8l-37.24 37.24M31.8-588.8-137.84-758.4m339.25 339.25 169.63 169.62M-5.45-551.55l72.4 72.4-130.32-14.48m57.92-57.92-72.4-72.4 14.48 130.32m434.4 244.09 33.1-33.1m-33.1 33.1L540.67-79.91M371.04-249.54l-75.99 75.98m109.09-109.08-78.61-136.52 132.39 82.74m-53.78 53.78 136.52 78.61-82.74-132.4m302.02 376.5L710.29 89.7m0 0 169.63 169.63M710.28 89.7l-37.24 37.24M710.3 89.7 540.66-79.9m339.25 339.25 169.63 169.62M673.05 126.95l72.4 72.4-130.32-14.48m57.92-57.92-72.4-72.4 14.48 130.32m434.41 244.1 33.1-33.1m-33.1 33.1 169.62 169.62m-169.62-169.63-75.98 75.99m109.08-109.09-78.61-136.52 132.39 82.74m-53.78 53.78 136.52 78.61-82.74-132.39m302.02 376.48-49.65 49.65m0 0 169.62 169.63M1388.79 768.2l-37.24 37.24m37.24-37.24L1219.16 598.6m339.25 339.25 169.63 169.62m-376.49-302.01 72.41 72.4-130.33-14.48m57.92-57.92-72.4-72.4 14.48 130.32m434.41 244.09 33.1-33.1m-33.1 33.1 169.62 169.63m-169.62-169.63-75.98 75.98m109.08-109.08-78.61-136.52 132.39 82.74m-53.78 53.78 136.52 78.61-82.74-132.39m252.37 426.13-169.63-169.62m-2130.65-2958.1 169.63 169.63m0 0 169.62 169.62m0 0 33.1-33.1m-33.1 33.1 169.62 169.63m-169.62-169.63-75.99 75.99m109.09-109.09-78.61-136.52 132.39 82.74m-53.78 53.78 136.52 78.61-82.74-132.39m302.01 376.48-49.64 49.65m0 0 169.62 169.63m-169.62-169.63-37.24 37.24m37.24-37.24-169.63-169.62m339.25 339.25 169.63 169.62M408.27-965.27l72.4 72.4-130.32-14.48m57.92-57.92-72.4-72.41 14.48 130.33m434.4 244.1 33.1-33.1m-33.1 33.1 169.63 169.62M784.76-663.26l-75.99 75.99m109.09-109.09-78.61-136.52 132.39 82.74m-53.78 53.78 136.52 78.61-82.74-132.4m302.02 376.5-49.65 49.64m0 0 169.62 169.63m-169.62-169.63-37.24 37.24m37.24-37.24L954.38-493.63m339.25 339.25 169.63 169.62m-376.49-302.01 72.41 72.4-130.33-14.48m57.92-57.92-72.4-72.4 14.48 130.32m434.41 244.1 33.1-33.1m-33.1 33.1 169.62 169.62M1463.26 15.24l-75.98 75.99m109.08-109.09-78.61-136.52 132.39 82.74m-53.78 53.78 136.52 78.61-82.74-132.39m302.02 376.49-49.65 49.64m0 0 169.62 169.63m-169.62-169.63-37.24 37.24m37.24-37.24-169.63-169.62m339.25 339.25 169.63 169.62m-376.49-302.01 72.41 72.4-130.33-14.48m57.92-57.92-72.4-72.4 14.48 130.32m434.41 244.1 33.1-33.1m-33.1 33.1 169.62 169.62m-169.62-169.63-75.98 75.99m109.08-109.09-78.61-136.52 132.39 82.74m-53.78 53.78 136.52 78.61-82.74-132.39m252.37 426.13-169.63-169.62M180.73-2094.73l169.62 169.63m0 0 128.26 95.15-86.88-136.53 37.23-37.23 136.53 86.88 57.92 57.92m-273.06-66.19 169.63 169.62m0 0 33.1-33.1m-33.1 33.1 169.62 169.63m-169.62-169.63-75.99 75.99m109.09-109.09-78.61-136.52 132.39 82.74m-53.78 53.78 136.52 78.61-82.74-132.39m0 0 16.55-16.55m0 0 57.92 57.92 86.88 136.53-37.23 37.23-136.53-86.88 95.15 128.26m219.27 119.98 223.41 115.84-37.23 37.23-33.1-16.55-33.1 33.1-28.96-28.96 24.83-24.82-95.16-53.79-28.96 28.96-41.37-41.37m49.64-49.64-49.64 49.64m49.64-49.64-115.84-223.41-37.23 37.23 16.55 33.1-33.1 33.1 28.96 28.96 24.82-24.83 53.79 95.16-28.96 28.96 41.37 41.37m0 0 169.62 169.63m-169.62-169.63-37.24 37.24m37.24-37.24L689.6-1585.85m339.25 339.25 128.26 95.15-86.88-136.53 37.23-37.23 136.53 86.88 57.92 57.92m-273.06-66.19 169.63 169.62m-376.49-302.01 72.4 72.4-130.32-14.48m57.92-57.92-72.4-72.4 14.48 130.32m434.41 244.09 33.1-33.1m-33.1 33.1 169.62 169.63m-169.62-169.63-75.99 75.99m109.09-109.09-78.61-136.52 132.39 82.74m-53.78 53.78 136.52 78.61-82.74-132.39m0 0 16.55-16.55m0 0 57.92 57.92 86.88 136.53-37.23 37.24-136.53-86.89 95.15 128.26m219.28 119.98 223.4 115.84-37.23 37.23-33.1-16.55-33.1 33.1-28.96-28.96 24.83-24.82-95.16-53.79-28.96 28.96-41.37-41.37m49.65-49.64-49.65 49.64m49.65-49.64-115.85-223.41-37.23 37.23 16.55 33.1-33.1 33.1 28.96 28.96 24.82-24.83 53.79 95.16-28.96 28.96 41.37 41.37m0 0 169.62 169.63m-169.62-169.63-37.24 37.24m37.24-37.24L1368.1-907.35m339.25 339.25 128.26 95.15-86.88-136.53 37.23-37.23 136.53 86.88 57.92 57.92m-273.06-66.2 169.63 169.63m-376.49-302.01 72.4 72.4-130.32-14.48m57.92-57.92-72.4-72.4 14.48 130.32m434.41 244.1 33.1-33.1m-33.1 33.1 169.62 169.62m-169.62-169.63-75.99 75.99m109.09-109.09-78.61-136.52 132.39 82.74m-53.78 53.78 136.52 78.61-82.74-132.39m0 0 16.55-16.55m0 0 57.92 57.92 86.88 136.53-37.23 37.23-136.53-86.88 95.15 128.26m219.28 119.97 223.4 115.85-37.23 37.23-33.1-16.55-33.1 33.1-28.96-28.96 24.83-24.82-95.16-53.79-28.96 28.96-41.37-41.37m49.65-49.65-49.65 49.65m49.65-49.65-115.85-223.4-37.23 37.23 16.55 33.1-33.1 33.1 28.96 28.96 24.82-24.83 53.79 95.16-28.96 28.96 41.37 41.37m0 0 169.62 169.63M2216.23-59.23l-37.24 37.24m37.24-37.24L2046.6-228.85m339.25 339.25 128.26 95.15-86.88-136.53 37.23-37.23 136.53 86.88 57.92 57.92m-273.06-66.2 169.63 169.63M2178.99-21.99l72.4 72.4-130.32-14.48M2178.99-22l-72.4-72.4 14.48 130.32m434.41 244.1 33.1-33.1m-33.1 33.1 169.62 169.62m-169.62-169.63-75.99 75.99m109.09-109.09-78.61-136.52 132.39 82.74m-53.78 53.78 136.52 78.61-82.74-132.39m0 0 16.55-16.55m0 0 57.92 57.92 86.88 136.53-37.23 37.23-136.53-86.88 95.15 128.26m169.63 169.62L2725.1 449.65m-4819.83-268.92 41.37 41.37-28.96 28.96 53.79 95.16 24.82-24.83 28.96 28.96-33.1 33.1 16.55 33.1-37.23 37.23-115.84-223.4 49.64-49.65Zm2714 2714-41.37-41.37-28.96 28.96-95.16-53.79 24.83-24.82-28.96-28.96-33.1 33.1-33.1-16.55-37.23 37.23 223.4 115.85 49.65-49.65ZM180.73-2094.73l41.37 41.37 28.96-28.96 95.16 53.79-24.83 24.82 28.96 28.96 33.1-33.1 33.1 16.55 37.23-37.23-223.4-115.84-49.65 49.64Zm2714 2714-41.37-41.37 28.96-28.96-53.79-95.16-24.82 24.83-28.96-28.96 33.1-33.1-16.55-33.1 37.23-37.23 115.85 223.4-49.65 49.65Zm-4650.21-157.21-111.7-111.7 30.26-30.27a21.56 21.56 0 0 1 30.49 0l81.21 81.21a21.56 21.56 0 0 1 0 30.5l-30.26 30.26Zm678.5 678.5-111.7-111.71 30.26-30.26a21.56 21.56 0 0 1 30.49 0l81.21 81.21a21.57 21.57 0 0 1 0 30.5l-30.26 30.26Zm678.5 678.5-111.7-111.71 30.26-30.26a21.56 21.56 0 0 1 30.5 0l81.2 81.21a21.57 21.57 0 0 1 0 30.5l-30.26 30.26Zm678.5 678.5-111.7-111.71 30.26-30.26a21.56 21.56 0 0 1 30.5 0l81.2 81.21a21.57 21.57 0 0 1 0 30.5l-30.26 30.26ZM-1697.56 519.98l111.71 111.7 30.26-30.26a21.56 21.56 0 0 0 0-30.5l-81.21-81.2a21.57 21.57 0 0 0-30.5 0l-30.26 30.26Zm678.5 678.5 111.7 111.7 30.27-30.26a21.56 21.56 0 0 0 0-30.49l-81.21-81.21a21.56 21.56 0 0 0-30.5 0l-30.26 30.26Zm678.5 678.5 111.7 111.7 30.27-30.26a21.56 21.56 0 0 0 0-30.49l-81.21-81.21a21.56 21.56 0 0 0-30.5 0l-30.26 30.26Zm678.5 678.5 111.7 111.7 30.27-30.26a21.56 21.56 0 0 0 0-30.49l-81.21-81.21a21.56 21.56 0 0 0-30.5 0l-30.26 30.26ZM-1341.76 48.34l-111.7-111.7 30.26-30.27a21.56 21.56 0 0 1 30.49 0l81.21 81.21a21.56 21.56 0 0 1 0 30.5l-30.26 30.26Zm678.5 678.5-111.7-111.7 30.26-30.27a21.56 21.56 0 0 1 30.5 0l81.2 81.21a21.56 21.56 0 0 1 0 30.5l-30.26 30.26Zm678.5 678.5-111.7-111.71 30.26-30.26a21.57 21.57 0 0 1 30.5 0l81.2 81.21a21.57 21.57 0 0 1 0 30.5l-30.26 30.26Zm678.5 678.5-111.7-111.71 30.26-30.26a21.56 21.56 0 0 1 30.5 0l81.2 81.21a21.57 21.57 0 0 1 0 30.5l-30.26 30.26ZM-1283.84 106.26l111.71 111.7 30.26-30.26a21.56 21.56 0 0 0 0-30.5l-81.21-81.2a21.57 21.57 0 0 0-30.5 0l-30.26 30.26Zm678.5 678.5 111.7 111.7 30.27-30.26a21.56 21.56 0 0 0 0-30.5l-81.21-81.2a21.56 21.56 0 0 0-30.5 0l-30.26 30.26Zm678.5 678.5 111.7 111.7 30.27-30.26a21.56 21.56 0 0 0 0-30.49L133.92 1433a21.57 21.57 0 0 0-30.5 0l-30.26 30.26Zm678.5 678.5 111.7 111.7 30.27-30.26a21.56 21.56 0 0 0 0-30.49l-81.21-81.21a21.56 21.56 0 0 0-30.5 0l-30.26 30.26ZM-928.04-365.38l-111.7-111.7 30.26-30.27a21.56 21.56 0 0 1 30.5 0l81.2 81.21a21.56 21.56 0 0 1 0 30.5l-30.26 30.26Zm678.5 678.5-111.7-111.7 30.26-30.27a21.56 21.56 0 0 1 30.5 0l81.2 81.21a21.56 21.56 0 0 1 0 30.5l-30.26 30.26Zm678.5 678.5-111.7-111.7 30.26-30.27a21.56 21.56 0 0 1 30.5 0l81.2 81.21a21.56 21.56 0 0 1 0 30.5l-30.26 30.26Zm678.5 678.5-111.7-111.71 30.26-30.26a21.56 21.56 0 0 1 30.49 0l81.21 81.21a21.57 21.57 0 0 1 0 30.5l-30.26 30.26ZM-870.12-307.46l111.7 111.7 30.27-30.26a21.56 21.56 0 0 0 0-30.5l-81.21-81.2a21.56 21.56 0 0 0-30.5 0l-30.26 30.26Zm678.5 678.5 111.7 111.7 30.27-30.26a21.57 21.57 0 0 0 0-30.5l-81.21-81.2a21.56 21.56 0 0 0-30.5 0l-30.26 30.26Zm678.5 678.5 111.7 111.7 30.27-30.26a21.56 21.56 0 0 0 0-30.49l-81.21-81.21a21.56 21.56 0 0 0-30.5 0l-30.26 30.26Zm678.5 678.5 111.71 111.7 30.26-30.26a21.56 21.56 0 0 0 0-30.49l-81.21-81.21a21.57 21.57 0 0 0-30.5 0l-30.26 30.26ZM-514.32-779.1l-111.7-111.7 30.26-30.27a21.56 21.56 0 0 1 30.5 0l81.2 81.21a21.56 21.56 0 0 1 0 30.5l-30.26 30.26Zm678.5 678.5L52.48-212.3l30.26-30.27a21.56 21.56 0 0 1 30.5 0l81.2 81.21a21.56 21.56 0 0 1 0 30.5l-30.26 30.26Zm678.5 678.5-111.7-111.7 30.26-30.27a21.56 21.56 0 0 1 30.5 0l81.2 81.21a21.56 21.56 0 0 1 0 30.5l-30.26 30.26Zm678.5 678.5-111.7-111.7 30.26-30.27a21.56 21.56 0 0 1 30.49 0l81.21 81.21a21.57 21.57 0 0 1 0 30.5l-30.26 30.26ZM-456.4-721.18l111.7 111.7 30.27-30.26a21.56 21.56 0 0 0 0-30.5l-81.21-81.2a21.56 21.56 0 0 0-30.5 0l-30.26 30.26Zm678.5 678.5 111.7 111.7 30.27-30.26a21.56 21.56 0 0 0 0-30.5l-81.21-81.2a21.57 21.57 0 0 0-30.5 0L222.1-42.68Zm678.5 678.5 111.71 111.7 30.26-30.26a21.56 21.56 0 0 0 0-30.5l-81.21-81.2a21.56 21.56 0 0 0-30.5 0l-30.26 30.26Zm678.5 678.5 111.71 111.7 30.26-30.26a21.56 21.56 0 0 0 0-30.49l-81.21-81.21a21.57 21.57 0 0 0-30.5 0l-30.26 30.26ZM-100.6-1192.82l-111.7-111.7 30.26-30.27a21.57 21.57 0 0 1 30.5 0l81.2 81.21a21.57 21.57 0 0 1 0 30.5l-30.26 30.26Zm678.5 678.5-111.7-111.7 30.26-30.26a21.56 21.56 0 0 1 30.5 0l81.2 81.2a21.56 21.56 0 0 1 0 30.5l-30.26 30.26Zm678.5 678.5-111.7-111.7 30.26-30.26a21.56 21.56 0 0 1 30.49 0l81.21 81.2a21.56 21.56 0 0 1 0 30.5l-30.26 30.26Zm678.5 678.5-111.71-111.7 30.27-30.26a21.56 21.56 0 0 1 30.49 0l81.21 81.2a21.56 21.56 0 0 1 0 30.5l-30.26 30.26ZM-42.68-1134.9l111.7 111.71 30.27-30.27a21.56 21.56 0 0 0 0-30.49l-81.21-81.21a21.56 21.56 0 0 0-30.5 0l-30.26 30.26Zm678.5 678.5 111.7 111.7 30.26-30.26a21.56 21.56 0 0 0 0-30.5l-81.2-81.2a21.56 21.56 0 0 0-30.5 0l-30.26 30.26Zm678.5 678.5 111.7 111.7 30.27-30.26a21.56 21.56 0 0 0 0-30.5l-81.21-81.2a21.57 21.57 0 0 0-30.5 0l-30.26 30.26Zm678.5 678.5 111.7 111.71 30.27-30.27a21.56 21.56 0 0 0 0-30.5l-81.21-81.2a21.57 21.57 0 0 0-30.5 0l-30.26 30.26ZM313.12-1606.54l-111.7-111.7 30.26-30.27a21.56 21.56 0 0 1 30.5 0l81.2 81.21a21.57 21.57 0 0 1 0 30.5l-30.26 30.26Zm678.5 678.5-111.7-111.7 30.26-30.27a21.56 21.56 0 0 1 30.5 0l81.2 81.21a21.56 21.56 0 0 1 0 30.5l-30.26 30.26Zm678.5 678.5-111.7-111.7 30.26-30.26a21.56 21.56 0 0 1 30.49 0l81.21 81.2a21.56 21.56 0 0 1 0 30.5l-30.26 30.26Zm678.5 678.5-111.71-111.7 30.27-30.26a21.56 21.56 0 0 1 30.49 0l81.21 81.2a21.56 21.56 0 0 1 0 30.5l-30.26 30.26ZM371.04-1548.62l111.7 111.71 30.27-30.27a21.56 21.56 0 0 0 0-30.49l-81.21-81.21a21.57 21.57 0 0 0-30.5 0l-30.26 30.26Zm678.5 678.5 111.7 111.7 30.27-30.26a21.56 21.56 0 0 0 0-30.5l-81.21-81.2a21.57 21.57 0 0 0-30.5 0l-30.26 30.26Zm678.5 678.5 111.7 111.7 30.27-30.26a21.56 21.56 0 0 0 0-30.5l-81.21-81.2a21.57 21.57 0 0 0-30.5 0l-30.26 30.26Zm678.5 678.5 111.7 111.7 30.27-30.26a21.56 21.56 0 0 0 0-30.5l-81.21-81.2a21.57 21.57 0 0 0-30.5 0l-30.26 30.26Zm-4013.08-173.76-111.7-111.7-30.27 30.26a21.56 21.56 0 0 0 0 30.5l81.21 81.2a21.57 21.57 0 0 0 30.5 0l30.26-30.26Zm678.5 678.5-111.7-111.7-30.27 30.26a21.56 21.56 0 0 0 0 30.5l81.21 81.2a21.56 21.56 0 0 0 30.5 0l30.26-30.26Zm678.5 678.5-111.7-111.71-30.26 30.27a21.56 21.56 0 0 0 0 30.49l81.2 81.21a21.56 21.56 0 0 0 30.5 0l30.26-30.26Zm678.5 678.5-111.7-111.71-30.26 30.27a21.56 21.56 0 0 0 0 30.49l81.2 81.21a21.56 21.56 0 0 0 30.5 0l30.26-30.26ZM-1548.62 371.04l111.71 111.7-30.27 30.26a21.56 21.56 0 0 1-30.49 0l-81.21-81.2a21.56 21.56 0 0 1 0-30.5l30.26-30.26Zm678.5 678.5 111.7 111.7-30.26 30.27a21.56 21.56 0 0 1-30.5 0l-81.2-81.21a21.57 21.57 0 0 1 0-30.5l30.26-30.26Zm678.5 678.5 111.7 111.7-30.26 30.27a21.56 21.56 0 0 1-30.5 0l-81.2-81.21a21.57 21.57 0 0 1 0-30.5l30.26-30.26Zm678.5 678.5 111.7 111.7-30.26 30.27a21.56 21.56 0 0 1-30.5 0l-81.2-81.21a21.57 21.57 0 0 1 0-30.5l30.26-30.26ZM-1192.82-100.6l-111.7-111.7-30.27 30.26a21.56 21.56 0 0 0 0 30.5l81.21 81.2a21.57 21.57 0 0 0 30.5 0l30.26-30.26Zm678.5 678.5-111.7-111.7-30.27 30.26a21.56 21.56 0 0 0 0 30.5l81.21 81.2a21.56 21.56 0 0 0 30.5 0l30.26-30.26Zm678.5 678.5-111.7-111.7-30.26 30.26a21.56 21.56 0 0 0 0 30.49l81.2 81.21a21.57 21.57 0 0 0 30.5 0l30.26-30.26Zm678.5 678.5-111.7-111.7-30.27 30.26a21.56 21.56 0 0 0 0 30.49l81.21 81.21a21.56 21.56 0 0 0 30.5 0l30.26-30.26ZM-1134.9-42.68l111.7 111.7-30.26 30.27a21.56 21.56 0 0 1-30.49 0l-81.21-81.21a21.56 21.56 0 0 1 0-30.5l30.26-30.26Zm678.5 678.5 111.7 111.7-30.26 30.27a21.56 21.56 0 0 1-30.5 0l-81.2-81.21a21.56 21.56 0 0 1 0-30.5l30.26-30.26Zm678.5 678.5 111.7 111.7-30.26 30.27a21.57 21.57 0 0 1-30.5 0l-81.2-81.21a21.57 21.57 0 0 1 0-30.5l30.26-30.26Zm678.5 678.5 111.71 111.7-30.27 30.27a21.56 21.56 0 0 1-30.5 0l-81.2-81.21a21.57 21.57 0 0 1 0-30.5l30.26-30.26ZM-779.1-514.32l-111.7-111.7-30.27 30.26a21.56 21.56 0 0 0 0 30.5l81.21 81.2a21.56 21.56 0 0 0 30.5 0l30.26-30.26Zm678.5 678.5-111.7-111.7-30.27 30.26a21.56 21.56 0 0 0 0 30.5l81.21 81.2a21.56 21.56 0 0 0 30.5 0l30.26-30.26Zm678.5 678.5-111.7-111.7-30.27 30.26a21.56 21.56 0 0 0 0 30.5l81.21 81.2a21.56 21.56 0 0 0 30.5 0l30.26-30.26Zm678.5 678.5-111.71-111.7-30.26 30.26a21.56 21.56 0 0 0 0 30.49l81.21 81.21a21.57 21.57 0 0 0 30.5 0l30.26-30.26ZM-721.18-456.4l111.7 111.7-30.26 30.27a21.56 21.56 0 0 1-30.5 0l-81.2-81.21a21.56 21.56 0 0 1 0-30.5l30.26-30.26Zm678.5 678.5 111.7 111.7-30.26 30.27a21.56 21.56 0 0 1-30.5 0l-81.2-81.21a21.57 21.57 0 0 1 0-30.5l30.26-30.26Zm678.5 678.5 111.7 111.71-30.26 30.26a21.56 21.56 0 0 1-30.5 0l-81.2-81.21a21.56 21.56 0 0 1 0-30.5l30.26-30.26Zm678.5 678.5 111.7 111.71-30.26 30.26a21.56 21.56 0 0 1-30.49 0l-81.21-81.21a21.57 21.57 0 0 1 0-30.5l30.26-30.26ZM-365.38-928.04l-111.7-111.7-30.27 30.26a21.56 21.56 0 0 0 0 30.5l81.21 81.2a21.56 21.56 0 0 0 30.5 0l30.26-30.26Zm678.5 678.5-111.7-111.7-30.27 30.26a21.56 21.56 0 0 0 0 30.5l81.21 81.2a21.56 21.56 0 0 0 30.5 0l30.26-30.26Zm678.5 678.5-111.7-111.7-30.27 30.26a21.56 21.56 0 0 0 0 30.5l81.21 81.2a21.56 21.56 0 0 0 30.5 0l30.26-30.26Zm678.5 678.5-111.71-111.7-30.26 30.26a21.56 21.56 0 0 0 0 30.49l81.21 81.21a21.57 21.57 0 0 0 30.5 0l30.26-30.26ZM-307.46-870.12l111.7 111.7-30.26 30.27a21.56 21.56 0 0 1-30.5 0l-81.2-81.21a21.56 21.56 0 0 1 0-30.5l30.26-30.26Zm678.5 678.5 111.7 111.7-30.26 30.27a21.56 21.56 0 0 1-30.5 0l-81.2-81.21a21.56 21.56 0 0 1 0-30.5l30.26-30.26Zm678.5 678.5 111.7 111.7-30.26 30.27a21.56 21.56 0 0 1-30.49 0l-81.21-81.21a21.56 21.56 0 0 1 0-30.5l30.26-30.26Zm678.5 678.5 111.7 111.71-30.26 30.26a21.56 21.56 0 0 1-30.49 0l-81.21-81.21a21.57 21.57 0 0 1 0-30.5l30.26-30.26ZM48.34-1341.76l-111.7-111.7-30.27 30.26a21.56 21.56 0 0 0 0 30.49l81.21 81.21a21.56 21.56 0 0 0 30.5 0l30.26-30.26Zm678.5 678.5-111.7-111.7-30.27 30.26a21.56 21.56 0 0 0 0 30.5l81.21 81.2a21.56 21.56 0 0 0 30.5 0l30.26-30.26Zm678.5 678.5-111.71-111.7-30.26 30.26a21.56 21.56 0 0 0 0 30.5l81.21 81.2a21.57 21.57 0 0 0 30.5 0l30.26-30.26Zm678.5 678.5-111.71-111.7-30.26 30.26a21.56 21.56 0 0 0 0 30.5l81.21 81.2a21.57 21.57 0 0 0 30.5 0l30.26-30.26ZM106.26-1283.84l111.7 111.71-30.26 30.26a21.56 21.56 0 0 1-30.5 0L76-1223.08a21.57 21.57 0 0 1 0-30.5l30.26-30.26Zm678.5 678.5 111.7 111.7-30.26 30.27a21.56 21.56 0 0 1-30.5 0l-81.2-81.21a21.56 21.56 0 0 1 0-30.5l30.26-30.26Zm678.5 678.5 111.7 111.7-30.26 30.27a21.56 21.56 0 0 1-30.49 0L1433 133.92a21.56 21.56 0 0 1 0-30.5l30.26-30.26Zm678.5 678.5 111.7 111.7-30.26 30.27a21.56 21.56 0 0 1-30.49 0l-81.21-81.21a21.57 21.57 0 0 1 0-30.5l30.26-30.26ZM462.06-1755.48l-111.7-111.7-30.27 30.26a21.56 21.56 0 0 0 0 30.49l81.21 81.21a21.56 21.56 0 0 0 30.5 0l30.26-30.26Zm678.5 678.5-111.71-111.7-30.26 30.26a21.56 21.56 0 0 0 0 30.49l81.21 81.21a21.57 21.57 0 0 0 30.5 0l30.26-30.26Zm678.5 678.5-111.71-111.7-30.26 30.26a21.56 21.56 0 0 0 0 30.5l81.21 81.2a21.57 21.57 0 0 0 30.5 0l30.26-30.26Zm678.5 678.5-111.71-111.7-30.26 30.26a21.56 21.56 0 0 0 0 30.5l81.21 81.2a21.57 21.57 0 0 0 30.5 0l30.26-30.26ZM519.98-1697.56l111.7 111.71-30.26 30.26a21.56 21.56 0 0 1-30.5 0l-81.2-81.21a21.57 21.57 0 0 1 0-30.5l30.26-30.26Zm678.5 678.5 111.7 111.7-30.26 30.27a21.56 21.56 0 0 1-30.49 0l-81.21-81.21a21.56 21.56 0 0 1 0-30.5l30.26-30.26Zm678.5 678.5 111.7 111.7-30.26 30.27a21.56 21.56 0 0 1-30.49 0l-81.21-81.21a21.56 21.56 0 0 1 0-30.5l30.26-30.26Zm678.5 678.5 111.7 111.7-30.26 30.27a21.56 21.56 0 0 1-30.49 0l-81.21-81.21a21.57 21.57 0 0 1 0-30.5l30.26-30.26Z"/>
    </g>
    <path fill="#EFF4FF" fill-opacity=".1" d="M0 0h800v800H0V0Z"/>
    <g fill="#FFF7F0" filter="url(#f)">
      <path d="M199.46 288 129 511h48.78l10.84-32.63h43.36v-38.08h-32.52l27.1-97.9h37.94V288h-65.04Zm65.04 0v223h48.78v-70.7l24.39-27.2 56.91 97.9H400v-76.15l-35.23-51.67L400 342.4V288h-10.84l-75.88 95.18V288H264.5Zm216.8 0h-48.78L400 434.85V511h21.68l32.52-141.42L492.14 511h43.36V288l-21.68 146.85L481.3 288Z"/>
      <path fill-rule="evenodd" d="M535.5 511V288h86.72c26.94 0 48.78 21.92 48.78 48.95v125.1c0 27.03-21.84 48.95-48.78 48.95H535.5Zm37.94-184.93v146.86h32.52a27.15 27.15 0 0 0 27.1-27.2v-92.46a27.15 27.15 0 0 0-27.1-27.2h-32.52Z" clip-rule="evenodd"/>
    </g>
  </g>
  <defs>
    <filter id="b" width="1200" height="1200" x="-200" y="-200" color-interpolation-filters="sRGB" filterUnits="userSpaceOnUse">
      <feFlood flood-opacity="0" result="BackgroundImageFix"/>
      <feColorMatrix in="SourceAlpha" result="hardAlpha" values="0 0 0 0 0 0 0 0 0 0 0 0 0 0 0 0 0 0 127 0"/>
      <feOffset/>
      <feGaussianBlur stdDeviation="100"/>
      <feColorMatrix values="0 0 0 0 0 0 0 0 0 0 0 0 0 0 0 0 0 0 0.15 0"/>
      <feBlend in2="BackgroundImageFix" result="effect1_dropShadow_1_1192"/>
      <feBlend in="SourceGraphic" in2="effect1_dropShadow_1_1192" result="shape"/>
    </filter>
    <filter id="c" width="1286.04" height="1169.87" x="-283.09" y="-112.33" color-interpolation-filters="sRGB" filterUnits="userSpaceOnUse">
      <feFlood flood-opacity="0" result="BackgroundImageFix"/>
      <feColorMatrix in="SourceAlpha" result="hardAlpha" values="0 0 0 0 0 0 0 0 0 0 0 0 0 0 0 0 0 0 127 0"/>
      <feOffset dy="4"/>
      <feGaussianBlur stdDeviation="17.5"/>
      <feColorMatrix values="0 0 0 0 0 0 0 0 0 0 0 0 0 0 0 0 0 0 1 0"/>
      <feBlend in2="BackgroundImageFix" result="effect1_dropShadow_1_1192"/>
      <feBlend in="SourceGraphic" in2="effect1_dropShadow_1_1192" result="shape"/>
    </filter>
    <filter id="d" width="1152.7" height="1107.78" x="-173.03" y="-178.78" color-interpolation-filters="sRGB" filterUnits="userSpaceOnUse">
      <feFlood flood-opacity="0" result="BackgroundImageFix"/>
      <feColorMatrix in="SourceAlpha" result="hardAlpha" values="0 0 0 0 0 0 0 0 0 0 0 0 0 0 0 0 0 0 127 0"/>
      <feOffset dy="4"/>
      <feGaussianBlur stdDeviation="17.5"/>
      <feColorMatrix values="0 0 0 0 0 0 0 0 0 0 0 0 0 0 0 0 0 0 1 0"/>
      <feBlend in2="BackgroundImageFix" result="effect1_dropShadow_1_1192"/>
      <feBlend in="SourceGraphic" in2="effect1_dropShadow_1_1192" result="shape"/>
    </filter>
    <filter id="e" width="5129.97" height="5129.97" x="-2164.98" y="-2160.98" color-interpolation-filters="sRGB" filterUnits="userSpaceOnUse">
      <feFlood flood-opacity="0" result="BackgroundImageFix"/>
      <feColorMatrix in="SourceAlpha" result="hardAlpha" values="0 0 0 0 0 0 0 0 0 0 0 0 0 0 0 0 0 0 127 0"/>
      <feOffset dy="4"/>
      <feGaussianBlur stdDeviation="10"/>
      <feColorMatrix values="0 0 0 0 0 0 0 0 0 0 0 0 0 0 0 0 0 0 0.65 0"/>
      <feBlend in2="BackgroundImageFix" result="effect1_dropShadow_1_1192"/>
      <feBlend in="SourceGraphic" in2="effect1_dropShadow_1_1192" result="shape"/>
    </filter>
    <filter id="f" width="672" height="353" x="64" y="223" color-interpolation-filters="sRGB" filterUnits="userSpaceOnUse">
      <feFlood flood-opacity="0" result="BackgroundImageFix"/>
      <feColorMatrix in="SourceAlpha" result="hardAlpha" values="0 0 0 0 0 0 0 0 0 0 0 0 0 0 0 0 0 0 127 0"/>
      <feOffset/>
      <feGaussianBlur stdDeviation="32.5"/>
      <feColorMatrix values="0 0 0 0 0.027451 0 0 0 0 0.0745098 0 0 0 0 0.129412 0 0 0 1 0"/>
      <feBlend in2="BackgroundImageFix" result="effect1_dropShadow_1_1192"/>
      <feBlend in="SourceGraphic" in2="effect1_dropShadow_1_1192" result="shape"/>
    </filter>
    <clipPath id="a">
      <path fill="#fff" d="M0 0h800v800H0z"/>
    </clipPath>
  </defs>
</svg>
